<svg xmlns="http://www.w3.org/2000/svg"><path fill-rule="nonzero" d="M13.983 22.534H7.366l-.216-1.942h7.048l-.215 1.942zm4.904-5.844H2.46V8.302h16.427v8.388zm-1 2.601H3.46V17.99h14.428v1.301zm-14.12-3.902h3.577V9.603H3.767v5.786zm2.29-3.415l.97.203-.662.714.1.953-.91-.385-.908.385.1-.953-.662-.714.97-.203.5-.827.501.827zm3.093.203l.97-.203.5-.827.5.827.97.203-.66.714.099.953-.909-.385-.908.385.1-.953-.662-.714zm-.318-2.574v5.786h3.578V9.603H8.832zm5.435 2.574l.971-.202.5-.828.5.828.97.202-.661.714.1.953-.909-.385-.908.385.1-.953-.663-.714zm-.37-2.574v5.786h3.682V9.603h-3.683zM11.5 3.19l.102.973-.929-.394-.928.394.101-.973-.676-.73.993-.208.51-.846.512.846.992.207-.677.73zM1.011 5.583h19.324V2.54h-4.624c-2.302-3.386-7.773-3.387-10.074 0H1.01v3.043zM0 25h21.347v-1.418h-1.012v-3.474h.888v-1.251h2.119V5.772c.395-.238.658-.666.658-1.153 0-.748-.62-1.354-1.383-1.354-.764 0-1.383.606-1.383 1.354 0 .487.264.915.658 1.153v11.667h-.67v-1.251h-.887V6.884H1.01v16.698H0V25z"/></svg>