<svg xmlns="http://www.w3.org/2000/svg"><path d="M13.858 11.193a1.992 1.992 0 0 0-1.716 0L9.878 8.714 8.714 9.878l2.478 2.265a1.992 1.992 0 0 0 0 1.714l-2.478 2.265 1.164 1.164 2.265-2.479a1.992 1.992 0 0 0 1.714 0l2.265 2.479 1.164-1.164-2.479-2.264a1.992 1.992 0 0 0 0-1.716l2.479-2.264-1.164-1.164-2.264 2.479zm-1.596-7.318V1.5c-1.232.08-2.442.357-3.587.82l1.03 2.14a9.183 9.183 0 0 1 2.557-.585zM8.378 5.098l-1.031-2.14A11.455 11.455 0 0 0 4.469 5.25l1.858 1.483a9.094 9.094 0 0 1 2.05-1.636zm-2.969 2.79L3.55 6.404a11.586 11.586 0 0 0-1.599 3.314l2.318.53a9.232 9.232 0 0 1 1.14-2.362zm-1.47 3.797l-2.316-.529a11.517 11.517 0 0 0 .002 3.681l2.315-.528a9.128 9.128 0 0 1 0-2.624zm.328 4.06l-2.315.528a11.553 11.553 0 0 0 1.593 3.318l1.859-1.481a9.158 9.158 0 0 1-1.137-2.364zm7.992 6.38a9.106 9.106 0 0 1-2.558-.586L8.668 23.68c1.167.475 2.379.745 3.59.822l.001-2.377zm4.032-.583a9.197 9.197 0 0 1-2.56.583l-.001 2.376a11.608 11.608 0 0 0 3.59-.819l-1.029-2.14zm3.379-2.272a9.12 9.12 0 0 1-2.052 1.635l1.03 2.14a11.44 11.44 0 0 0 2.88-2.292L19.67 19.27zm2.06-3.515a9.25 9.25 0 0 1-1.142 2.361l1.858 1.484a11.594 11.594 0 0 0 1.6-3.314l-2.317-.531zm.331-4.06a9.17 9.17 0 0 1 0 2.624l2.317.53c.199-1.23.194-2.472-.001-3.68l-2.316.525zm-1.462-3.801c.493.733.873 1.53 1.135 2.365l2.315-.527a11.541 11.541 0 0 0-1.591-3.318l-1.859 1.48zm-2.969-2.79a9.123 9.123 0 0 1 2.05 1.636l1.86-1.48a11.573 11.573 0 0 0-2.877-2.295L17.63 5.104zM6.323 19.263l-1.86 1.481c.84.926 1.794 1.675 2.879 2.294l1.033-2.141a9.147 9.147 0 0 1-2.052-1.634zm19.232-9.626c1.856 6.927-2.264 14.062-9.192 15.918C9.436 27.412 2.301 23.29.445 16.364-1.411 9.436 2.708 2.3 9.637.445c6.927-1.857 14.062 2.264 15.918 9.192zm-9.252-5.174l1.033-2.14a11.448 11.448 0 0 0-3.598-.825v2.377c.865.07 1.728.263 2.565.588z"/></svg>