<svg xmlns="http://www.w3.org/2000/svg"><path fill-rule="nonzero" d="M13.672 15.717a.997.997 0 0 1 0 1.406.989.989 0 0 1-1.401 0 .997.997 0 0 1 0-1.406.988.988 0 0 1 1.401 0zm3.76 3.772a.997.997 0 0 1 0 1.406.988.988 0 0 1-1.402 0 .997.997 0 0 1 0-1.406.987.987 0 0 1 1.402 0zM19.509 16a.988.988 0 0 1 1.401 0 .997.997 0 0 1 0 1.405.988.988 0 0 1-1.401 0 .997.997 0 0 1 0-1.406zm-11.327.562L16.59 25 25 16.56l-8.41-8.44-8.408 8.44zm7.708-.703a.988.988 0 0 1 1.401 0 .997.997 0 0 1 0 1.406.987.987 0 0 1-1.401 0 .996.996 0 0 1 0-1.406zM4.477 3.3a.992.992 0 1 1-1.982 0c0-.55.443-.994.991-.994s.991.445.991.994zm0 5.336a.992.992 0 0 1-.99.994.992.992 0 0 1-.991-.994.992.992 0 0 1 1.981 0zM9.396 3.3c0 .55-.444.994-.991.994a.992.992 0 0 1-.99-.994c0-.55.443-.994.99-.994.547 0 .991.445.991.994zm-.99 4.341c.547 0 .99.445.99.994a.992.992 0 0 1-.99.994.992.992 0 0 1-.991-.994c0-.549.444-.994.99-.994zm-1.47-1.673a.992.992 0 0 1-.99.994.992.992 0 0 1-.99-.994c0-.55.443-.994.99-.994.548 0 .99.445.99.994zm4.957 5.968V0H0v11.936h11.893zm3.857.29a.987.987 0 0 1 1.4 0 .997.997 0 0 1 0 1.406.987.987 0 0 1-1.4 0 .996.996 0 0 1 0-1.406z"/></svg>