<svg xmlns="http://www.w3.org/2000/svg"><path fill-rule="nonzero" d="M16.498 11.536h3.841l-.595-2.385C21.546 10.307 24 9.048 24 6.874c0-1.717-1.59-2.988-3.283-2.664C21.907 2.434 20.633 0 18.42 0c-2.216 0-3.488 2.432-2.299 4.21-1.692-.324-3.283.947-3.283 2.664 0 2.176 2.457 3.434 4.259 2.274l-.598 2.388zM6.589 9.19c1.655.834 3.431-.519 3.431-2.289 0-2.11-3.455-5.395-4.737-6.9C3.999 1.509.544 4.789.544 6.9c0 1.769 1.78 3.125 3.433 2.287l-.587 2.347h3.785L6.589 9.19zm3.975 8.258c0-2.947-3.548-3.854-5.282-1.342C3.547 13.594 0 14.5 0 17.448c0 2.356 3.849 6.012 5.282 7.693 1.43-1.677 5.282-5.34 5.282-7.693zM18.414 26l4.886-6.104-4.878-6.11-4.886 6.103L18.415 26z"/></svg>