<svg xmlns="http://www.w3.org/2000/svg"><path fill-rule="nonzero" d="M11.726 8.005h-1.452V5.622h1.452v2.383zm2.344 1.349l-1.72 5.428c-.873 2.758-4.608.387-2.475-1.572l4.195-3.856zm-9.353 5.65H2.331v-1.45h2.386v1.45zm7.009 5.549v2.384h-1.452v-2.384h1.452zm7.943-5.55h-2.386v-1.449h2.386v1.45zm-1.854-9.862c.735.547 1.4 1.18 1.983 1.885l.464-.463.571.57L22 5.968l-3.078-3.073-1.166 1.165.57.57-.51.511zm-5.229-2.145V2.05h.931V0H8.501v2.05h.931v.944a11.79 11.79 0 0 1 3.154.002zM3.673 4.63l.571-.57-1.166-1.166L0 5.968l1.167 1.165.57-.57.465.463a11.87 11.87 0 0 1 1.983-1.885l-.512-.511zM11 25c5.93 0 10.736-4.8 10.736-10.721C21.736 8.357 16.93 3.558 11 3.558 5.07 3.558.264 8.358.264 14.279S5.07 25 11 25z"/></svg>