<svg xmlns="http://www.w3.org/2000/svg"><path d="M13 0C5.82 0 0 5.82 0 13s5.82 13 13 13 13-5.82 13-13A13 13 0 0 0 13 0zm6.894 13.538l-3.841.233-3.246-4.483 1.161-3.138 5.415-.417 2.273 3.416-1.762 4.389zM8.07 18.976l-2.076-3.318 1.924-5.06 3.873-.4 3.205 4.42-1.547 3.882-5.379.476zM19.276 3.192l-.34 1.228-5.452.412-2.69-1.743.292-1.578c2.849-.48 5.774.121 8.203 1.685l-.013-.004zM9.642 1.847l-.25 1.345-3.183 2.501c-.449 0-1.18.054-2.394.14A11.691 11.691 0 0 1 9.65 1.837l-.009.009zM2.873 7.24c1.018-.072 2.098-.144 2.834-.18l1.07 2.762-1.945 5.119-3.236.48a11.62 11.62 0 0 1 1.273-8.177l.004-.004zm6.375 16.792h.09l-1.794-2.116.682-1.591 5.733-.511 2.564 1.954-1.174 2.645c-2.037.421-4.15.29-6.119-.38h.018zm7.786-.099l.978-2.281 2.927-2.278 1.632.26a11.713 11.713 0 0 1-5.532 4.3h-.005zm6.294-5.554l-1.793-.282-.659-3.447 1.843-4.609 1.627.377c.619 2.69.258 5.513-1.018 7.961z"/></svg>