<?xml version="1.0" encoding="UTF-8" standalone="no"?>
<svg
   xmlns:dc="http://purl.org/dc/elements/1.1/"
   xmlns:cc="http://creativecommons.org/ns#"
   xmlns:rdf="http://www.w3.org/1999/02/22-rdf-syntax-ns#"
   xmlns:svg="http://www.w3.org/2000/svg"
   xmlns="http://www.w3.org/2000/svg"
   xmlns:sodipodi="http://sodipodi.sourceforge.net/DTD/sodipodi-0.dtd"
   xmlns:inkscape="http://www.inkscape.org/namespaces/inkscape"
   version="1.1"
   id="svg3735"
   sodipodi:docname="icon-board.svg"
   inkscape:version="0.92.4 (5da689c313, 2019-01-14)">
  <metadata
     id="metadata3741">
    <rdf:RDF>
      <cc:Work
         rdf:about="">
        <dc:format>image/svg+xml</dc:format>
        <dc:type
           rdf:resource="http://purl.org/dc/dcmitype/StillImage" />
        <dc:title></dc:title>
      </cc:Work>
    </rdf:RDF>
  </metadata>
  <defs
     id="defs3739" />
  <sodipodi:namedview
     pagecolor="#ffffff"
     bordercolor="#666666"
     borderopacity="1"
     objecttolerance="10"
     gridtolerance="10"
     guidetolerance="10"
     inkscape:pageopacity="0"
     inkscape:pageshadow="2"
     inkscape:window-width="2560"
     inkscape:window-height="1017"
     id="namedview3737"
     showgrid="false"
     inkscape:zoom="4.72"
     inkscape:cx="11.228133"
     inkscape:cy="65.982936"
     inkscape:window-x="-8"
     inkscape:window-y="-8"
     inkscape:window-maximized="1"
     inkscape:current-layer="svg3735" />
  <path
     inkscape:connector-curvature="0"
     viewBox="0 0 429.987 429.987"
     d="m 4.7009497,20.750463 c -0.8648449,0 -1.5684505,0.703605 -1.5684505,1.568392 0,0.864845 0.7036056,1.568451 1.5684505,1.568451 0.8647868,0 1.5683924,-0.703606 1.5683924,-1.568451 0,-0.864848 -0.7036056,-1.568392 -1.5683924,-1.568392 z m 0,2.042871 c -0.2616401,0 -0.4744792,-0.212839 -0.4744792,-0.474479 0,-0.261582 0.2128391,-0.474421 0.4744792,-0.474421 0.2615819,0 0.4744211,0.212839 0.4744211,0.474421 0,0.26164 -0.2128392,0.474479 -0.4744211,0.474479 z M 25.526481,0.20115876 H 21.313046 A 0.54698629,0.54698629 0 0 0 20.766059,0.74814583 V 2.7498715 C 19.754925,2.8881984 18.862486,3.4043109 18.236186,4.1509479 H 7.1603829 c -1.7249501,0 -3.3496213,0.6747382 -4.5748708,1.8999241 -1.2251887,1.2253714 -1.89992683,2.8501034 -1.89992683,4.574874 0,1.724768 0.67473813,3.349561 1.89998773,4.574871 1.2251886,1.225128 2.8499207,1.899866 4.5748099,1.899866 l 11.6931081,-6.1e-5 c 0.348675,0 0.679116,0.138449 0.930667,0.390062 0.251433,0.25131 0.389879,0.581751 0.389879,0.930605 0,0.348675 -0.138507,0.679237 -0.390001,0.930667 -0.251429,0.251372 -0.58187,0.389881 -0.930545,0.389881 H 7.7777488 C 7.0405941,18.863055 5.9347679,18.303549 4.7008279,18.303549 c -2.2140167,0 -4.01524263,1.801226 -4.01524263,4.015245 0,2.214017 1.80122593,4.015304 4.01524263,4.015304 1.2341227,0 2.339888,-0.559507 3.0770427,-1.438269 H 18.853491 c 1.724771,0 3.3495,-0.674677 4.574871,-1.899866 0.148233,-0.148296 0.503654,-0.553551 0.527112,-0.594393 0.89013,-1.134511 1.372694,-2.521728 1.372694,-3.980542 0,-1.724828 -0.674739,-3.34956 -1.899928,-4.57487 -1.22531,-1.225189 -2.850039,-1.899927 -4.574809,-1.899927 h -5.647389 a 0.53586421,0.53586421 0 0 0 -0.01398,0 l -6.031739,6.1e-5 c -0.3486135,0 -0.6791734,-0.13851 -0.9306668,-0.390001 -0.2514297,-0.251371 -0.3898784,-0.581934 -0.3898784,-0.930666 0,-0.21199 0.051173,-0.41729 0.1478064,-0.602173 0.00717,-0.01204 0.013843,-0.024307 0.019989,-0.036768 A 1.3506915,1.3506915 0 0 1 6.229586,9.6950797 C 6.4812012,9.4435254 6.8117611,9.3050766 7.1603137,9.3050766 H 18.236117 c 0.737155,0.8785824 1.842981,1.4382104 3.07686,1.4382104 2.214017,0 4.015183,-1.8012266 4.015183,-4.0152461 0,-0.3508006 -0.04552,-0.6995331 -0.135288,-1.0363554 a 0.54698629,0.54698629 0 0 0 -1.057081,0.281698 2.9297801,2.9297801 0 0 1 0.0984,0.7546574 c 0,1.6108147 -1.31046,2.9212722 -2.921211,2.9212722 -1.610814,0 -2.921332,-1.3105184 -2.921332,-2.9212722 0,-1.4239249 1.024019,-2.6131338 2.374345,-2.869976 v 2.869976 c 0,0.3021188 0.244868,0.5469871 0.546987,0.5469871 0.302119,0 0.546985,-0.2448683 0.546985,-0.5469871 V 4.2059503 h 3.66645 A 0.54698629,0.54698629 0 0 0 26.073399,3.6589632 V 0.74814583 A 0.54686472,0.54686472 0 0 0 25.526473,0.20115876 Z M 4.7008279,25.240187 c -1.6107509,0 -2.9212713,-1.31052 -2.9212713,-2.921332 0,-1.610754 1.3105204,-2.921271 2.9212713,-2.921271 1.6108755,0 2.921454,1.310517 2.921454,2.921271 0,1.610812 -1.3105785,2.921332 -2.921454,2.921332 z M 12.652125,23.801916 H 8.4324317 A 3.9950662,3.9950662 0 0 0 8.7162561,22.318855 3.9930607,3.9930607 0 0 0 8.4323708,20.83567 h 4.2197542 z m 4.822535,0 H 13.746099 V 20.83567 h 3.728561 z m 5.180202,-1.579453 c -1.018731,1.018487 -2.368692,1.579453 -3.80131,1.579453 H 18.568634 V 20.83567 h 0.284918 c 0.640885,0 1.246036,-0.252222 1.704045,-0.710231 0.0245,-0.0245 0.04838,-0.04941 0.07165,-0.07469 l 2.097996,2.097996 c -0.02389,0.02472 -0.04801,0.04935 -0.07239,0.07372 z m 1.579395,-3.801313 c 0,1.026694 -0.288141,2.010965 -0.826315,2.861347 L 21.18256,19.057112 a 2.3978663,2.3978663 0 0 0 0.08539,-0.636023 c 0,-0.214478 -0.02826,-0.424947 -0.08296,-0.62721 l 2.227267,-2.227206 c 0.535439,0.848618 0.821999,1.830458 0.821999,2.854477 z m -5.665623,-5.380945 h 0.284918 c 1.432618,0 2.78264,0.560962 3.801249,1.579513 0.02625,0.02625 0.05221,0.05275 0.07786,0.07944 L 20.63454,16.79721 c -0.02492,-0.02724 -0.05057,-0.05397 -0.07682,-0.08028 -0.45807,-0.458194 -1.063282,-0.710474 -1.704167,-0.710413 h -0.284918 z m -4.822535,0 h 3.728561 v 2.966307 h -3.728561 z m -4.5009676,0 h 3.4069936 v 2.966307 H 9.2451314 Z M 1.7795566,10.625686 c 0,-1.0654698 0.3102029,-2.0851734 0.8882474,-2.956887 L 4.8679641,9.8688382 A 2.3936727,2.3936727 0 0 0 4.7458636,10.625807 c 0,0.280239 0.048197,0.553671 0.1408186,0.810936 L 2.6970978,13.626331 C 2.1002135,12.745013 1.7795566,11.709081 1.7795566,10.625686 Z m 5.3804,2.414519 h 0.9912007 v 2.966307 H 7.1603829 c -1.4129865,0 -2.7454447,-0.545528 -3.7588905,-1.537518 l 2.0973287,-2.097389 c 0.4527822,0.431694 1.0403061,0.668661 1.6611355,0.6686 z M 8.1511573,8.2111045 H 7.1603829 c -0.6380302,0 -1.2408696,0.2500952 -1.6984525,0.7045801 L 3.3647844,6.8186605 C 4.3827264,5.8037556 5.7303174,5.2448583 7.1603829,5.2448583 h 0.9907744 z m 4.5009677,0 H 9.2451314 V 5.2449192 h 3.4069936 z m 4.929442,0 H 13.746099 V 5.2449192 h 3.835468 C 17.398448,5.704022 17.29774,6.2043953 17.29774,6.7280409 c 0,0.5236484 0.100708,1.0240217 0.283827,1.4830636 z M 24.979496,3.1119762 H 21.860031 V 1.2951301 h 3.119465 z"
     id="path20"
     style="stroke-width:0.06077626" />
</svg>
