<svg xmlns="http://www.w3.org/2000/svg"><path fill-rule="nonzero" d="M11.188 4.643c1.873 0 4.052.37 5.69 1.339a6.353 6.353 0 0 0-5.69-3.546A6.352 6.352 0 0 0 5.5 5.98c1.647-.968 3.806-1.338 5.688-1.338zm6.23 4.852H4.958c.96 1.745 4.49 2.257 6.23 2.257 1.74 0 5.27-.512 6.23-2.257zm-.541 2.216c-1.637.968-3.818 1.34-5.689 1.34-1.872 0-4.051-.372-5.688-1.34a6.353 6.353 0 0 0 5.688 3.546 6.354 6.354 0 0 0 5.689-3.546zm-2.098 7.824c4.273-1.459 7.28-5.39 7.574-9.944h.962v2.435H26v-1.49h-1.207V8.102H19.93C19.552 3.526 15.747 0 11.188 0 6.63 0 2.825 3.526 2.446 8.101H0c0 5.323 2.498 9.692 7.598 11.434L6.05 20.848V23h10.277v-2.152l-1.548-1.313zm-3.59-1.842c4.558 0 8.364-3.527 8.742-8.102h.941c-.38 5.1-4.607 9.048-9.684 9.048-5.076 0-9.302-3.948-9.683-9.048h.941c.379 4.575 4.184 8.102 8.742 8.102zm7.295-8.8c-.026 4.045-3.284 7.31-7.296 7.31-4.03 0-7.295-3.294-7.295-7.357 0-4.062 3.266-7.357 7.295-7.357 4.07 0 7.296 3.314 7.296 7.404zm-1.066-.696c-.96-1.744-4.49-2.257-6.23-2.257-1.739 0-5.27.513-6.23 2.257h12.46z"/></svg>