<svg xmlns="http://www.w3.org/2000/svg" width="44" height="32" viewBox="0 0 44 32"><g><g><path fill="#fff" d="M0 3a3 3 0 0 1 3-3h38a3 3 0 0 1 3 3v26a3 3 0 0 1-3 3H3a3 3 0 0 1-3-3z"/></g><g><g><path fill="#00579f" d="M19.566 21.778H16.67l1.811-11.428h2.896z"/></g><g><path fill="#00579f" d="M30.058 10.637a7.013 7.013 0 0 0-2.598-.487c-2.86 0-4.874 1.556-4.886 3.78-.024 1.642 1.442 2.554 2.538 3.1 1.12.56 1.501.925 1.501 1.424-.011.765-.905 1.118-1.74 1.118-1.155 0-1.775-.182-2.716-.608l-.382-.182-.405 2.565c.68.316 1.93.596 3.23.608 3.039 0 5.017-1.532 5.04-3.903.012-1.3-.762-2.297-2.43-3.112-1.013-.523-1.634-.875-1.634-1.41.012-.487.525-.985 1.668-.985a4.837 4.837 0 0 1 2.158.438l.262.121.394-2.467z"/></g><g><path fill="#00579f" d="M37.486 10.35l2.336 11.427h-2.681s-.263-1.313-.346-1.714h-3.718l-.608 1.714H29.43l4.302-10.479c.298-.742.823-.948 1.514-.948zm-3.575 7.38h2.407c-.12-.572-.668-3.308-.668-3.308l-.202-.984c-.143.425-.393 1.118-.381 1.094l-1.156 3.197z"/></g><g><path fill="#00579f" d="M14.25 10.35l-2.836 7.792-.31-1.58c-.524-1.824-2.169-3.805-4.004-4.79l2.598 9.993h3.062l4.553-11.415H14.25z"/></g><g><path fill="#faa61a" d="M8.777 10.35h-4.66l-.047.23c3.635.95 6.042 3.235 7.031 5.983l-1.013-5.252c-.167-.73-.68-.937-1.31-.961z"/></g></g></g></svg>