<svg xmlns="http://www.w3.org/2000/svg" width="1060" height="217" viewBox="0 0 1060 217"><defs><linearGradient id="ifu7a" x1="739" x2="739" y1=".41" y2="216.59" gradientUnits="userSpaceOnUse"><stop offset="0" stop-color="#ffe802"/><stop offset="1" stop-color="#ffb90c"/></linearGradient></defs><g><g><g><path fill="#fff" d="M406.41 216.59c-21.28 0-39.73-7.66-54.83-22.76-15.1-15.1-22.76-33.55-22.76-54.83V12.61c0-7.07 5.13-12.2 12.2-12.2 6.99 0 12.06 5.13 12.06 12.2v48.8h53.33c7.07 0 12.2 5.13 12.2 12.2 0 7.07-5.13 12.2-12.2 12.2h-53.33V139c0 14.79 5.14 27.07 15.71 37.56 10.51 10.51 22.81 15.62 37.61 15.62 7.07 0 12.2 5.13 12.2 12.2.01 7.07-5.12 12.21-12.19 12.21zm-160.86 0c-21.28 0-39.73-7.66-54.83-22.76-15.1-15.1-22.76-33.55-22.76-54.83s7.66-39.73 22.76-54.83c15.11-15.01 33.56-22.62 54.83-22.62 15.86 0 30.59 4.58 43.78 13.62 13.11 8.92 22.64 20.82 28.32 35.38l.08.19.37.73.26 1.08c1.83 6.23-1.12 12.23-7.17 14.65l-108.71 43.42 2.19 2.56c1.02 1.2 2.13 2.39 3.28 3.54 10.5 10.49 22.79 15.6 37.59 15.6 17.48 0 31.2-6.72 41.93-20.54l.18-.23c2.47-3 5.8-4.65 9.38-4.65 2.64 0 5.24.92 7.52 2.66 5.46 4.18 6.48 11.3 2.42 16.93l-.14.2-.07.08c-15.52 19.79-36.12 29.82-61.21 29.82zm0-130.78c-14.8 0-27.1 5.1-37.59 15.59-10.59 10.51-15.74 22.8-15.74 37.59 0 1.66.08 3.4.26 5.33l.37 4.05L290 109.54l-2.51-3.18c-3.55-4.51-7.76-8.35-12.86-11.73-8.94-5.93-18.45-8.82-29.08-8.82zM78.47 216.59c-21.28 0-39.73-7.66-54.83-22.76C8.54 178.73.88 160.28.88 139V12.61C.88 5.54 6.01.41 13.08.41c6.99 0 12.06 5.13 12.06 12.2v69.75l4.95-4.03c13.76-11.22 30.04-16.92 48.38-16.92 21.28 0 39.72 7.66 54.83 22.76 15.1 15.11 22.76 33.55 22.76 54.83s-7.66 39.73-22.76 54.83c-15.1 15.1-33.55 22.76-54.83 22.76zm0-130.73c-29.44 0-53.39 23.95-53.39 53.39s23.95 53.39 53.39 53.39 53.39-23.95 53.39-53.39c0-29.43-23.95-53.39-53.39-53.39z"/></g><g><path fill="url(#ifu7a)" d="M579.83 216.58c-7.07 0-12.2-5.13-12.2-12.2V12.61c0-7.07 5.13-12.2 12.2-12.2 6.99 0 12.06 5.13 12.06 12.2v191.77c0 7.07-5.08 12.21-12.06 12.2zm-83.43 0c-21.28 0-39.73-7.66-54.83-22.76-15.1-15.1-22.76-33.55-22.76-54.83s7.66-39.73 22.76-54.83c15.1-15.1 33.55-22.76 54.83-22.76 21.07 0 39.36 7.5 54.36 22.29 4.86 4.86 4.97 12.05.25 17.08l-.24.25c-2.37 2.37-5.42 3.69-8.55 3.69-2.14 0-5.35-.61-8.45-3.52l-.18-.18c-10.38-10.22-22.55-15.19-37.19-15.19-14.8 0-27.1 5.1-37.59 15.59-10.59 10.51-15.74 22.8-15.74 37.59 0 14.78 5.14 27.07 15.71 37.56 10.51 10.51 22.81 15.62 37.61 15.62 14.59 0 26.78-4.95 37.25-15.12 2.43-2.49 5.49-3.85 8.64-3.85 2.22 0 5.51.66 8.65 3.79 2.48 2.49 3.79 5.64 3.69 8.89-.07 2.14-.79 5.32-3.83 8.36-15.03 14.82-33.34 22.34-54.39 22.33zM981.61 85.87c-29.44 0-53.39 23.95-53.39 53.39s23.95 53.39 53.39 53.39S1035 168.7 1035 139.26s-23.95-53.4-53.39-53.39zm0 130.72c-21.28 0-39.73-7.66-54.83-22.76-15.1-15.1-22.76-33.55-22.76-54.83V12.61c0-7.07 5.13-12.2 12.2-12.2 6.99 0 12.06 5.13 12.06 12.2v69.75l4.95-4.03c13.76-11.23 30.04-16.92 48.38-16.92 21.28 0 39.72 7.66 54.83 22.76 15.1 15.1 22.76 33.55 22.76 54.83s-7.66 39.73-22.76 54.83c-15.1 15.1-33.55 22.76-54.83 22.76zm-88.31-77.78c0 15.59-4.59 30.63-13.29 43.49-8.47 12.54-20.29 22.28-34.2 28.16-9.59 4.06-19.78 6.12-30.28 6.12-15.6 0-30.63-4.59-43.49-13.29-5.46-3.69-10.51-8.17-15.02-13.33l-.58-.67.61-.64c4.29-4.51 8.77-9.57 13.69-15.49l.79-1.01.77-1 .78.99c5.69 7.25 13.1 12.94 21.42 16.46 6.65 2.81 13.72 4.24 21.03 4.24 10.82 0 21.27-3.19 30.2-9.22 8.72-5.9 15.5-14.12 19.58-23.78 2.81-6.65 4.24-13.73 4.24-21.03 0-10.82-3.19-21.26-9.22-30.19a54.048 54.048 0 0 0-23.78-19.59 54.341 54.341 0 0 0-12.32-3.53c-2.9-.47-5.84-.71-8.71-.71-4.23 0-8.3.54-12.44 1.66-3.91 1.06-7.89 2.67-11.82 4.78-7.43 3.99-14.99 9.89-23.13 18.04-4.66 4.66-9.6 10.15-15.1 16.77-6.87 8.8-13.94 17.85-20.97 25.9-8.28 9.48-15.32 16.22-22.15 21.23-5.82 4.24-11.36 7.12-16.94 8.8-3.71 1.1-7.41 1.66-11.03 1.66-2.05 0-4.08-.54-5.88-1.57-3.7-2.12-6-6.06-6-10.3 0-6.54 5.32-11.87 11.87-11.87 1.51 0 3.08-.29 4.81-.86 1.88-.63 3.92-1.63 6.07-2.96 4.4-2.72 9.43-7.01 14.96-12.76 3.34-3.47 6.97-7.56 11.08-12.51 1.81-2.17 3.65-4.46 5.5-6.77l2.54-3.17c2.43-3.07 4.79-6.09 7.11-9.06l.75-.94 1.54-1.84c.52-.62 2.19-2.58 2.19-2.58.96-1.12 1.91-2.22 2.84-3.27l.11-.12c.66-.75 1.26-1.42 1.86-2.08l1.63-1.8c.94-1.04 1.89-2.05 2.82-3.03l.25-.27c1.93-2.02 3.72-3.84 5.49-5.55 7.27-7.04 14.24-12.6 21.29-17 5.34-3.32 10.8-6 16.24-7.96 7.93-2.86 16.16-4.32 24.44-4.32 15.61 0 30.65 4.6 43.51 13.29 12.54 8.48 22.28 20.31 28.16 34.21 4.06 9.59 6.12 19.78 6.18 30.27zm-130.5 27.76c-7.02 8.44-13.02 15.02-18.91 20.73l-.63.6c-.4.38-.79.75-1.19 1.12l-.32.3c-6.54 6.12-12.8 11.02-19.15 14.98-5.33 3.32-10.79 6-16.24 7.96-7.93 2.87-16.16 4.33-24.45 4.33h-.02c-15.59 0-30.62-4.6-43.48-13.29-12.54-8.47-22.28-20.3-28.16-34.21-4.06-9.6-6.12-19.79-6.11-30.27-.01-15.58 4.59-30.62 13.29-43.49a77.833 77.833 0 0 1 34.2-28.17c9.6-4.06 19.78-6.12 30.26-6.12 15.61 0 30.65 4.6 43.51 13.29 5.45 3.68 10.51 8.17 15.02 13.33l.59.67-.62.65c-2.22 2.33-4.4 4.72-6.57 7.18l-.2.22c-.96 1.09-1.94 2.22-2.94 3.38l-.66.76c-1.06 1.24-2.14 2.52-3.24 3.85l-.89 1.11-.77.98-.77-.98c-5.69-7.25-13.09-12.94-21.42-16.46-6.65-2.81-13.72-4.24-21.03-4.24-10.83.01-21.28 3.2-30.2 9.22-8.72 5.9-15.5 14.12-19.58 23.78-2.81 6.65-4.24 13.73-4.24 21.03 0 10.82 3.19 21.27 9.22 30.2a53.993 53.993 0 0 0 23.78 19.59c3.91 1.65 8.04 2.84 12.28 3.53 2.91.47 5.86.71 8.75.71 4.25 0 8.32-.54 12.43-1.66 3.98-1.08 7.84-2.64 11.82-4.78 7.43-3.99 15-9.89 23.13-18.04 4.64-4.65 9.58-10.13 15.1-16.77l.85.49-.77-.6c6.82-8.74 13.88-17.77 20.88-25.79 8.31-9.5 15.35-16.25 22.16-21.23 5.82-4.24 11.36-7.12 16.94-8.8 3.69-1.11 7.4-1.67 11.03-1.67a11.9 11.9 0 0 1 11.87 11.88c0 6.55-5.33 11.87-11.87 11.87-1.52 0-3.09.28-4.8.85-1.89.63-3.93 1.62-6.09 2.96-4.4 2.72-9.43 7.01-14.96 12.76-3.34 3.47-6.97 7.56-11.08 12.51-1.73 2.09-3.48 4.25-5.24 6.44l-.42.53c-3.4 4.25-6.78 8.56-9.94 12.62z"/></g></g></g></svg>