<svg xmlns="http://www.w3.org/2000/svg" width="32" height="32" viewBox="0 0 32 32"><g><g><g><path fill="#6f6e70" d="M16 32c8.837 0 16-7.163 16-16S24.837 0 16 0 0 7.163 0 16s7.163 16 16 16z"/></g><g><path fill="#161516" d="M29 16a6.963 6.963 0 0 1-1.195 3.914 6.987 6.987 0 0 1-9.708 1.889 7.017 7.017 0 0 1-1.35-1.2l-.053-.06.055-.058c.386-.406.789-.861 1.23-1.394l.072-.09.07-.09.07.088a4.874 4.874 0 0 0 1.925 1.482 4.826 4.826 0 0 0 1.891.381c.973 0 1.913-.287 2.716-.83a4.866 4.866 0 0 0-.826-8.513 4.882 4.882 0 0 0-1.89-.381c-.381 0-.747.048-1.12.149-.35.095-.709.24-1.062.43-.668.36-1.348.89-2.08 1.624-.419.42-.863.913-1.357 1.51-.618.791-1.254 1.606-1.886 2.33-.744.854-1.377 1.46-1.992 1.911-.523.382-1.021.64-1.523.792-.333.1-.666.15-.992.15a1.072 1.072 0 0 1-1.068-1.068c0-.59.479-1.07 1.068-1.07.135 0 .276-.025.432-.077.17-.056.352-.146.546-.266.395-.245.848-.63 1.345-1.148.3-.313.627-.68.996-1.126.163-.196.328-.402.495-.61l.228-.285c.219-.276.43-.548.64-.815l.067-.085.138-.166a69.786 69.786 0 0 1 .453-.526l.01-.011.167-.187.146-.162c.085-.094.17-.185.254-.273l.022-.024c.174-.182.335-.346.494-.5.654-.633 1.28-1.134 1.914-1.53.48-.299.971-.54 1.46-.716A6.46 6.46 0 0 1 22 9c1.404 0 2.756.414 3.912 1.196a7.003 7.003 0 0 1 2.532 3.08c.365.862.55 1.78.556 2.724zm-11.734 2.498c-.631.76-1.17 1.352-1.7 1.866l-.057.054-.107.1-.029.028c-.588.55-1.15.991-1.722 1.348-.479.299-.97.54-1.46.716a6.44 6.44 0 0 1-2.198.39H9.99A6.993 6.993 0 0 1 3 16a6.96 6.96 0 0 1 1.194-3.914A7 7 0 0 1 7.27 9.551 6.941 6.941 0 0 1 9.99 9a6.955 6.955 0 0 1 5.264 2.396l.053.06-.056.059c-.2.21-.396.425-.59.646l-.019.02-.264.304-.06.068c-.095.112-.192.227-.29.347l-.08.1-.07.088-.07-.088a4.867 4.867 0 0 0-1.925-1.482 4.826 4.826 0 0 0-1.891-.381c-.974 0-1.914.288-2.716.83a4.866 4.866 0 0 0 .826 8.514 4.84 4.84 0 0 0 1.89.381c.383 0 .749-.048 1.118-.149a4.97 4.97 0 0 0 1.063-.43c.668-.36 1.349-.89 2.08-1.624.417-.418.861-.912 1.358-1.51l.076.045-.07-.054c.614-.787 1.249-1.6 1.878-2.321.747-.855 1.38-1.463 1.993-1.911.523-.382 1.021-.64 1.523-.792.332-.1.665-.15.992-.15a1.071 1.071 0 0 1 1.067 1.07c0 .588-.48 1.067-1.067 1.067-.137 0-.278.025-.432.077-.17.056-.353.145-.547.266-.396.245-.848.631-1.346 1.149-.3.312-.626.68-.996 1.125a51.83 51.83 0 0 0-.471.58l-.038.048c-.305.382-.61.77-.893 1.136z"/></g></g></g></svg>