<svg xmlns="http://www.w3.org/2000/svg" width="44" height="32" viewBox="0 0 44 32"><g><g><path fill="#fff" d="M0 3a3 3 0 0 1 3-3h38a3 3 0 0 1 3 3v26a3 3 0 0 1-3 3H3a3 3 0 0 1-3-3z"/></g><g><g><g><path fill="#fff" d="M6 5h31.852v21.975H6z"/></g></g><g><path fill="#ff5f00" d="M17.73 8.83h8.402v14.315H17.73z"/></g><g><path fill="#eb001b" d="M18.587 15.992c-.003-2.793 1.227-5.432 3.333-7.156-3.578-2.933-8.717-2.506-11.804.982-3.088 3.487-3.088 8.864 0 12.352 3.087 3.487 8.226 3.914 11.804.981-2.107-1.725-3.336-4.365-3.333-7.159z"/></g><g><path fill="#f79e1b" d="M35.957 22.11v-.636l-.13.546h-.09l-.13-.546v.636h-.087v-.84h.12l.14.6.14-.6h.12v.84zm-.76 0v-.696h-.157v-.144h.397v.144h-.167v.696z"/></g><g><path fill="#f79e1b" d="M36.041 15.986c0 3.485-1.908 6.665-4.913 8.188-3.006 1.523-6.581 1.122-9.208-1.032 2.105-1.726 3.335-4.364 3.335-7.157 0-2.794-1.23-5.432-3.335-7.158 2.627-2.154 6.202-2.555 9.208-1.032 3.005 1.523 4.913 4.703 4.913 8.188z"/></g></g></g></svg>