<svg xmlns="http://www.w3.org/2000/svg" width="44" height="32" viewBox="0 0 44 32"><g><g><path fill="#fff" d="M0 3a3 3 0 0 1 3-3h38a3 3 0 0 1 3 3v26a3 3 0 0 1-3 3H3a3 3 0 0 1-3-3z"/></g><g><g><path fill="#253b80" d="M22.53 14.83a.387.387 0 0 0-.317.167l-1.836 2.675-.779-2.57a.385.385 0 0 0-.369-.272h-1.308a.231.231 0 0 0-.188.095.226.226 0 0 0-.03.207l1.466 4.255-1.379 1.925a.226.226 0 0 0-.017.236.23.23 0 0 0 .205.124h1.33c.126 0 .244-.061.316-.164l4.427-6.32a.226.226 0 0 0 .015-.235.23.23 0 0 0-.204-.123zm-9.064 3.8c-.385 0-.692-.121-.89-.352-.196-.23-.27-.557-.208-.92.12-.743.73-1.262 1.485-1.262.376 0 .682.124.883.357.202.236.282.565.224.927-.128.748-.728 1.25-1.494 1.25zm2.016-3.8a.23.23 0 0 0-.228.193l-.058.366-.093-.133c-.287-.411-.926-.549-1.564-.549-1.464 0-2.715 1.097-2.958 2.635-.127.767.053 1.5.493 2.012.404.47.982.666 1.669.666 1.18 0 1.833-.75 1.833-.75l-.059.364a.226.226 0 0 0 .053.184c.043.051.107.08.175.08h1.193c.19 0 .35-.136.38-.32l.716-4.484a.225.225 0 0 0-.052-.184.23.23 0 0 0-.175-.08zm-8.268 1.004h-.418l.293-1.825a.23.23 0 0 1 .228-.191h.191c.5 0 .971 0 1.215.28.145.167.19.416.134.759-.151.977-.91.977-1.643.977zM5.77 12.3c-.189 0-.35.136-.38.32l-1.118 7.016a.226.226 0 0 0 .053.183c.043.05.107.08.175.08h1.32c.19 0 .351-.136.38-.321l.302-1.892a.383.383 0 0 1 .38-.322h.875c1.823 0 2.874-.872 3.149-2.6.124-.756.005-1.35-.353-1.766-.393-.456-1.09-.698-2.016-.698z"/></g><g><path fill="#179bd7" d="M36.963 19.636a.226.226 0 0 0 .052.183c.044.051.108.08.175.08h1.142c.19 0 .35-.136.38-.321l1.12-7.014a.226.226 0 0 0-.053-.184.232.232 0 0 0-.175-.08h-1.278a.23.23 0 0 0-.228.193zm-3.768-1.005c-.383 0-.692-.122-.89-.353-.195-.23-.269-.556-.207-.92.12-.742.73-1.261 1.484-1.261.377 0 .682.123.884.357.203.235.283.564.224.926-.127.749-.729 1.251-1.495 1.251zm2.018-3.8a.229.229 0 0 0-.228.192l-.058.367-.093-.133c-.287-.412-.926-.55-1.565-.55-1.463 0-2.713 1.097-2.957 2.635-.126.767.053 1.5.493 2.012.405.47.982.667 1.669.667 1.18 0 1.833-.75 1.833-.75l-.059.364a.226.226 0 0 0 .053.184c.044.05.108.08.175.08h1.193c.19 0 .35-.137.38-.321l.716-4.484a.227.227 0 0 0-.053-.184.232.232 0 0 0-.176-.08zm-8.27 1.003h-.416l.293-1.824a.229.229 0 0 1 .227-.192h.192c.499 0 .97 0 1.214.28.145.168.19.416.134.76-.15.976-.91.976-1.643.976zM25.502 12.3a.383.383 0 0 0-.38.321l-1.118 7.015a.226.226 0 0 0 .052.183c.044.051.108.08.175.08h1.42a.268.268 0 0 0 .265-.225l.318-1.988a.383.383 0 0 1 .38-.321h.875c1.822 0 2.873-.872 3.149-2.6.124-.756.004-1.35-.354-1.766-.392-.457-1.09-.699-2.015-.699z"/></g></g></g></svg>