<svg xmlns="http://www.w3.org/2000/svg" width="118" height="24" viewBox="0 0 118 24"><g><g><path fill="#6f6e70" d="M84.774 18.516c-.78.938-1.447 1.669-2.102 2.303l-.07.067-.132.125-.036.033a13.826 13.826 0 0 1-2.128 1.665c-.592.369-1.199.666-1.805.884a7.966 7.966 0 0 1-2.717.481h-.002a8.597 8.597 0 0 1-4.832-1.476 8.637 8.637 0 0 1-3.809-7.166 8.588 8.588 0 0 1 1.477-4.833 8.65 8.65 0 0 1 3.801-3.13 8.586 8.586 0 0 1 3.363-.681c1.735 0 3.406.511 4.835 1.477a8.666 8.666 0 0 1 1.67 1.481l.065.075-.069.072c-.247.259-.489.525-.73.798l-.022.024a47.22 47.22 0 0 0-.327.376l-.073.084c-.118.138-.238.28-.36.428l-.1.124-.085.109-.085-.11a6.015 6.015 0 0 0-2.38-1.829 5.97 5.97 0 0 0-2.338-.47 6.01 6.01 0 0 0-5.532 3.667 5.973 5.973 0 0 0-.471 2.337 6 6 0 0 0 6.004 6.004c.473 0 .925-.06 1.382-.184.442-.12.87-.294 1.313-.532.826-.443 1.667-1.099 2.57-2.004a27.724 27.724 0 0 0 1.679-1.864l.094.054-.085-.066c.758-.972 1.542-1.975 2.32-2.866.924-1.056 1.706-1.806 2.463-2.36.647-.47 1.262-.791 1.882-.978.41-.123.823-.185 1.226-.185a1.319 1.319 0 0 1 1.32 1.32 1.32 1.32 0 0 1-1.32 1.32c-.169 0-.343.03-.533.094-.21.07-.437.18-.677.329-.49.302-1.048.779-1.663 1.418-.37.385-.774.84-1.231 1.39-.192.232-.387.472-.582.716l-.047.058c-.378.473-.754.952-1.105 1.403zm14.502-3.085c0 1.732-.51 3.404-1.477 4.833a8.634 8.634 0 0 1-7.165 3.81 8.59 8.59 0 0 1-6.503-2.959l-.064-.074.068-.072c.476-.5.974-1.063 1.521-1.721l.088-.112.085-.111.087.11a6.023 6.023 0 0 0 2.38 1.829 5.97 5.97 0 0 0 2.338.471 6.01 6.01 0 0 0 5.532-3.667 5.974 5.974 0 0 0 .471-2.337 6.006 6.006 0 0 0-3.667-5.532 6.04 6.04 0 0 0-2.337-.472c-.47 0-.923.06-1.383.185a6.25 6.25 0 0 0-1.314.531c-.825.443-1.665 1.1-2.57 2.005a27.336 27.336 0 0 0-1.678 1.864c-.764.977-1.55 1.983-2.33 2.878-.92 1.053-1.703 1.802-2.462 2.36-.647.47-1.263.79-1.883.977a4.31 4.31 0 0 1-1.225.185 1.323 1.323 0 0 1-1.32-1.32c0-.726.59-1.319 1.318-1.319a1.7 1.7 0 0 0 .535-.095c.209-.07.436-.181.675-.33.489-.301 1.048-.778 1.662-1.417.371-.386.775-.84 1.231-1.39.202-.242.406-.496.612-.753l.282-.352c.27-.341.532-.677.79-1.007l.083-.104.172-.205c.057-.069.243-.287.243-.287.107-.124.212-.246.316-.363l.012-.013c.073-.084.14-.158.206-.232l.182-.2a18.9 18.9 0 0 1 .313-.336l.028-.03c.214-.225.413-.427.61-.617.808-.783 1.582-1.4 2.366-1.89a9.6 9.6 0 0 1 1.805-.884 7.99 7.99 0 0 1 2.716-.48 8.649 8.649 0 0 1 7.965 5.279 8.71 8.71 0 0 1 .686 3.364zm9.814 8.644c-2.364 0-4.415-.852-6.093-2.53s-2.53-3.728-2.53-6.093V1.406c0-.786.57-1.356 1.357-1.356.776 0 1.34.57 1.34 1.356v7.751l.55-.448c1.529-1.248 3.338-1.88 5.376-1.88 2.365 0 4.415.851 6.094 2.53 1.678 1.678 2.53 3.728 2.53 6.093 0 2.365-.852 4.415-2.53 6.093s-3.729 2.53-6.094 2.53zm0-14.528a5.94 5.94 0 0 0-5.933 5.934 5.94 5.94 0 0 0 5.933 5.933 5.94 5.94 0 0 0 5.934-5.933 5.94 5.94 0 0 0-5.934-5.934zM55.168 24.073c-2.365 0-4.415-.85-6.093-2.529-1.678-1.678-2.53-3.728-2.53-6.093 0-2.365.852-4.416 2.53-6.094s3.728-2.53 6.093-2.53c2.342 0 4.374.834 6.041 2.478.54.54.553 1.34.028 1.898l-.027.028c-.263.263-.602.41-.95.41-.238 0-.594-.068-.939-.391l-.02-.02c-1.153-1.136-2.506-1.688-4.133-1.688-1.645 0-3.012.567-4.177 1.732-1.177 1.168-1.75 2.534-1.75 4.178 0 1.642.572 3.008 1.746 4.174 1.168 1.168 2.535 1.736 4.18 1.736 1.621 0 2.976-.55 4.14-1.68.27-.277.61-.428.96-.428.247 0 .612.073.961.42.276.278.421.628.41.989-.008.238-.088.591-.425.929-1.67 1.647-3.706 2.483-6.045 2.481zm9.272 0c-.786 0-1.356-.57-1.356-1.355V1.406c0-.786.57-1.356 1.356-1.356.777 0 1.34.57 1.34 1.356v21.312c0 .785-.564 1.356-1.34 1.355zm-19.273.002c-2.365 0-4.415-.852-6.093-2.53s-2.53-3.728-2.53-6.093V1.406c0-.786.57-1.356 1.356-1.356.777 0 1.34.57 1.34 1.356v5.423h5.927c.786 0 1.356.57 1.356 1.356 0 .786-.57 1.356-1.356 1.356h-5.926v5.91c0 1.644.57 3.01 1.746 4.175 1.168 1.168 2.534 1.736 4.18 1.736.785 0 1.355.57 1.355 1.356.001.785-.569 1.356-1.355 1.356zm-17.876 0c-2.365 0-4.416-.852-6.094-2.53s-2.53-3.728-2.53-6.093c0-2.365.852-4.415 2.53-6.094 1.68-1.668 3.73-2.513 6.094-2.513 1.762 0 3.4.509 4.865 1.513 1.457.992 2.516 2.314 3.147 3.932l.01.021.04.081.03.12c.203.693-.125 1.36-.798 1.628l-12.08 4.826.243.284c.113.134.236.266.364.394 1.167 1.165 2.533 1.733 4.178 1.733 1.942 0 3.467-.746 4.66-2.282l.02-.026c.274-.333.644-.517 1.042-.517.293 0 .582.103.835.296.607.465.72 1.256.27 1.881l-.016.023-.008.009c-1.725 2.199-4.014 3.314-6.802 3.314zm0-14.534c-1.645 0-3.012.566-4.178 1.732-1.177 1.168-1.749 2.534-1.749 4.178 0 .184.009.378.029.592l.041.45 10.796-4.315-.278-.354a6.01 6.01 0 0 0-1.43-1.303 5.677 5.677 0 0 0-3.231-.98zM8.723 24.075c-2.365 0-4.416-.852-6.094-2.53S.1 17.817.1 15.452V1.406C.1.62.67.05 1.456.05c.777 0 1.34.57 1.34 1.356v7.751l.55-.448c1.53-1.246 3.339-1.88 5.377-1.88 2.365 0 4.414.851 6.093 2.53 1.678 1.679 2.53 3.728 2.53 6.093 0 2.365-.852 4.415-2.53 6.093s-3.728 2.53-6.093 2.53zm0-14.529a5.94 5.94 0 0 0-5.934 5.934 5.94 5.94 0 0 0 5.934 5.933 5.94 5.94 0 0 0 5.933-5.933 5.94 5.94 0 0 0-5.933-5.934z"/></g></g></svg>