<svg xmlns="http://www.w3.org/2000/svg" width="44" height="32" viewBox="0 0 44 32"><g><g><path fill="#fff" d="M0 3a3 3 0 0 1 3-3h38a3 3 0 0 1 3 3v26a3 3 0 0 1-3 3H3a3 3 0 0 1-3-3z"/></g><g><path fill="#006fcf" d="M7.528 13.19H5.443l-.4.835H4L5.844 10h1.203l1.844 4.025H7.849zm-1.36-1.671l-.404.911h1.453l-.403-.911-.323-.835zm4.086-.76v3.266h-.962V10h1.603l.962 2.734L12.82 10h1.603v4.025h-.962V10.76l-1.203 3.266h-.882zm8.409 0h-2.399v.76h2.319v.835h-2.319v.836h2.399v.835h-3.358V10h3.358zm1.693 3.266h-.962V10h2.245c.882 0 1.443.532 1.443 1.291 0 .608-.4 1.063-1.122 1.215l1.443 1.52H22.2l-1.282-1.444h-.481zm1.283-3.19l-1.202-.076v.988h1.202c.401 0 .561-.228.561-.456s-.16-.456-.56-.456zm2.085-.76h.972v3.95h-.972zm1.684 1.976v-.076c0-1.14.719-1.975 1.998-1.975h1.119v.835h-1.04c-.719 0-1.118.456-1.118 1.14v.076c0 .683.4 1.139 1.119 1.139h.24l-.4.835c-1.2 0-1.918-.76-1.918-1.974zm6.013 1.139h-2.085l-.4.835h-1.043L29.737 10h1.283l1.844 4.025h-1.042zm-1.684-.76h1.443l-.4-.911-.321-.835-.32.835zm4.57-.835l-.16-.304v2.734h-.962V10h1.283l1.523 2.278.24.38V10h.963v4.025H35.99zm-19.493 7.061h-2.398v.758h2.318v.833h-2.318v.834h2.398v.833h-3.357V17.9h3.357zm3.618 3.258L17.39 20.55l-1.043 1.288h-1.202l1.684-1.97-1.684-1.97h1.202l1.043 1.289 1.042-1.288h1.203l-1.684 1.97 1.684 2.045zm1.443-4.015l2.32-.076c.879 0 1.439.607 1.439 1.367 0 .835-.64 1.367-1.52 1.367h-1.28v1.367h-.959zm2.807 1.372c0-.307-.241-.537-.642-.537h-1.203v1.074h1.283c.401 0 .562-.23.562-.537zm2.485 2.643h-.962V17.9h2.245c.882 0 1.443.53 1.443 1.288 0 .606-.4 1.06-1.122 1.212l1.443 1.515H27.01l-1.283-1.44h-.48zm1.283-3.18l-1.203-.076v.988h1.203c.4 0 .561-.228.561-.456s-.16-.456-.561-.456zm5.452-.078h-2.405v.758h2.325v.833h-2.325v.834h2.405v.833h-3.367V17.9h3.367zm2.806 2.509c.24 0 .481-.152.401-.456 0-.228-.16-.38-.4-.38h-.963c-.802 0-1.283-.38-1.283-1.14 0-.683.562-1.214 1.443-1.214h2.165l-.4.835h-1.845c-.24 0-.4.152-.4.38s.16.38.4.38h.962c.802 0 1.283.38 1.283 1.139 0 .76-.561 1.291-1.443 1.291h-2.085v-.835zm3.929 0c.32 0 .481-.152.4-.456 0-.228-.16-.38-.4-.38h-.962c-.802 0-1.283-.38-1.283-1.14 0-.683.561-1.214 1.443-1.214H40l-.4.835h-1.845c-.24 0-.4.152-.4.38s.16.38.4.38h.962c.802 0 1.283.38 1.283 1.139 0 .76-.561 1.291-1.443 1.291h-2.085v-.835z"/></g></g></svg>