<svg xmlns="http://www.w3.org/2000/svg" width="129" height="12" viewBox="0 0 129 12"><g><g><path fill="#6f6e70" d="M128.55 8.884c-.408 1.868-1.976 2.999-4.066 2.999-2.44 0-4.24-1.867-4.24-4.47 0-2.604 1.8-4.472 4.24-4.472 1.335 0 2.613.622 3.369 1.755.58.962.93 2.037.87 3.168h-6.271c.232 2.207 1.683 2.32 2.09 2.32.813.057 1.568-.51 1.801-1.245zm-2.266-2.49c0-.962-.812-1.698-1.742-1.698h-.058c-.987 0-1.801.736-1.975 1.64zm-9.698-1.868c.582-1.075 1.22-1.527 2.207-1.527.348 0 .638.057.987.112v1.982c-.349-.057-.697-.113-1.046-.113-1.104-.057-2.032.736-2.09 1.755v3.282h1.045v1.64h-4.066v-1.641h.871V4.81h-.87V3.168h2.96v1.358zm-4.872 5.547h.756v1.64h-2.73v-1.018c-.638.791-1.626 1.188-2.671 1.188-1.743 0-3.078-1.131-3.078-2.66 0-2.488 2.903-2.772 5.691-2.998 0-1.3-.464-1.697-1.568-1.697s-1.51.51-1.568 1.3v.058l-2.09-.057c.115-1.698 1.509-2.773 3.6-2.773 2.439 0 3.717 1.075 3.717 2.998zm-2.09-2.377c-2.033.17-3.37.34-3.37 1.528 0 .679.582 1.131 1.453 1.131 1.045 0 1.916-.792 1.975-1.81v-.849zM90.69 3.168h3.484v1.64h-.87l1.219 5.036 1.452-6.677h2.265l1.453 6.563 1.16-4.923h-.87V3.168h3.484v1.64h-.756l-1.857 6.848H98.53l-1.452-5.884-1.394 5.884H93.36L91.444 4.81h-.756zM83.954.51h2.787l3.195 9.394h.871v1.81h-2.613l-.756-2.433h-4.066l-.755 2.433h-2.672v-1.81h.871zm1.393 2.094l-1.509 4.98h3.02zm-6.911 6.734c-.116.509-.349.905-.697 1.3a3.662 3.662 0 0 1-2.788 1.246c-2.38 0-4.066-1.81-4.066-4.414 0-2.489 1.684-4.413 3.833-4.413 2.15 0 3.892 1.64 3.892 4.64h-6.331c.116 1.245.407 1.98.987 2.546a2.529 2.529 0 0 0 1.626.622c.987 0 1.627-.452 2.091-1.47zm-1.277-2.604c0-.792-.29-1.528-.871-2.15-.407-.34-.93-.566-1.453-.509-1.104.057-2.032.792-2.323 1.81-.059.283-.174.567-.174.85zM66.239 0h2.498v10.695h1.161v1.018h-3.717v-1.018h1.278V.96h-1.22zm-7.075 0v4.923c.349-.622 1.335-1.867 2.846-1.867 1.975 0 3.485 1.98 3.485 4.47 0 2.32-1.627 4.301-3.485 4.301-1.568 0-2.323-1.018-2.846-1.697v1.585h-2.496v-1.019h1.22V1.02h-1.162V0zm0 8.091c0 1.415 1.104 2.547 2.498 2.66 1.51 0 2.439-1.302 2.439-3.396s-.987-3.338-2.44-3.338c-1.277 0-2.554 1.358-2.554 2.603zM44.588 4.753C44.995 4.187 45.748 3 47.375 3c1.161 0 1.801.566 2.032 1.754.233-.396.465-.736.813-1.075.523-.453 1.161-.737 1.858-.737 1.335 0 2.09.85 2.09 2.32v5.375h1.22v1.019H52.95V5.713c0-1.188-.407-1.754-1.278-1.754-1.51 0-2.324 1.754-2.324 2.376v4.301h1.279v1.019H48.07v-6.11c0-1.076-.407-1.528-1.278-1.528-1.336 0-2.324 1.64-2.324 2.434v4.244h1.278v1.018h-3.774v-1.018h1.278V4.13h-1.278V3.113h2.555zm-3.66 6.96h-2.497v-1.528c-.581 1.076-1.742 1.698-2.962 1.698-1.452.113-2.729-1.019-2.846-2.434v-.17c0-1.64 1.453-2.433 4.937-2.773l.813-.057V5.6c0-.961-.756-1.584-1.975-1.584-1.22 0-1.858.396-2.091 1.527h-1.335a2.99 2.99 0 0 1 .986-1.754c.639-.51 1.51-.736 2.324-.736 1.8 0 3.31.791 3.31 2.943v4.696h1.22zM38.432 7.3l-.812.112c-2.672.34-3.543.792-3.543 1.868.058.961.87 1.64 1.8 1.64 1.279-.057 2.381-.961 2.555-2.207zM27.165 6.11h4.007v5.545h-1.278V9.903a5.099 5.099 0 0 1-.871 1.076 4.134 4.134 0 0 1-2.613.961c-2.672 0-4.763-2.546-4.763-5.829 0-3.282 2.09-5.884 4.704-5.884 1.452-.057 2.73.736 3.426 1.924V.397h1.22V3.96h-1.279a3.688 3.688 0 0 0-.638-1.358c-.581-.736-1.51-1.188-2.44-1.245-1.393 0-3.484 1.188-3.484 4.64 0 2.717 1.51 4.697 3.485 4.697a3.315 3.315 0 0 0 3.136-2.66c.059-.282.059-.621.059-.905h-2.73zm-7.26 2.773c-.407 1.868-1.975 2.999-4.066 2.999-2.44 0-4.24-1.867-4.24-4.47 0-2.604 1.8-4.472 4.24-4.472 1.335 0 2.613.622 3.369 1.755.581.962.93 2.037.87 3.168h-6.271c.233 2.207 1.683 2.32 2.09 2.32.813.057 1.569-.51 1.801-1.245zm-2.207-2.49c0-.962-.812-1.698-1.742-1.698h-.058c-.987 0-1.801.736-1.976 1.64zM.45.509h4.414c1.975 0 2.672.057 3.252.283C9.22 1.3 9.858 2.32 9.858 3.508c0 1.131-.348 1.697-1.51 2.264 1.22.396 2.033 1.528 1.917 2.773 0 1.867-1.51 3.113-3.717 3.113H.45V9.846h.871V2.32H.45zm3.252 4.527h2.265c.812.057 1.568-.51 1.626-1.301v-.113c0-.736-.755-1.301-1.8-1.301H3.701zm0 1.754v3.056H6.14c.93.057 1.742-.566 1.8-1.47v-.058c0-.961-.812-1.585-2.031-1.585z"/></g></g></svg>