<svg xmlns="http://www.w3.org/2000/svg" width="89" height="24" viewBox="0 0 89 24"><g><g><path fill="#6f6e70" d="M88.522 13.356c-.068 2.056-.068 3.272-.068 5.397 0 1.936 0 3.17.068 5.037h-1.725c-1.928-2.913-3.991-6.048-5.462-8.104 0 3.495 0 5.414.101 8.104h-1.742v-.291c.017-.908.102-3.016.102-4.746 0-2.125-.068-4.352-.102-5.397h2.03c2.029 2.741 3.923 5.602 5.157 7.487 0-3.016 0-5.02-.101-7.487zm-15.271-.138c3.264 0 5.462 2.074 5.462 5.226 0 3.359-2.384 5.517-5.462 5.517-3.247 0-5.445-2.073-5.445-5.208 0-3.341 2.35-5.535 5.445-5.535zm3.416 5.363c0-2.415-1.404-3.99-3.416-3.99-2.08 0-3.382 1.61-3.382 3.99 0 2.381 1.353 4.008 3.382 4.008 2.046 0 3.4-1.61 3.416-4.008zM64.863 23.79c.102-1.868.102-3.101.102-5.037 0-2.125 0-3.324-.102-5.397h1.996c-.102 2.056-.102 3.272-.102 5.397 0 1.936 0 3.17.102 5.037zm7.356-13.548c-1.065.377-2.215.565-3.635.565-3.028 0-5.632-2.004-5.632-5.054 0-3.41 2.401-5.723 5.987-5.723 1.319 0 2.401.257 3.28.651l-.575 1.576c-.44-.445-1.606-.822-2.756-.822-2.554 0-3.923 1.56-3.923 3.958 0 2.536 1.741 4.06 3.703 4.06.693 0 1.167-.068 1.556-.205.068-.565.068-1.628.068-2.159 0-.685 0-1.233-.068-1.73h2.012c-.033.6-.033 1.319-.033 2.039 0 .77 0 1.987.033 2.81l-.017.034m-9.182 5.067c-.474-.394-1.184-.771-2.216-.771-1.251 0-1.894.548-1.894 1.285 0 .617.305 1.062 1.64 1.645.339.137.694.308 1.032.462 1.573.737 2.232 1.525 2.232 2.947 0 2.022-1.623 3.067-3.77 3.067-1.303 0-2.402-.205-3.383-.668l.575-1.525c.778.514 1.759.874 2.773.874 1.404 0 1.895-.668 1.895-1.474 0-.753-.508-1.233-1.556-1.713a37.283 37.283 0 0 0-1.201-.548c-1.42-.669-2.114-1.457-2.114-2.793 0-1.662 1.505-2.913 3.805-2.913 1.268 0 2.182.206 2.807.548zM61.988.236c-.067 2.039-.067 3.272-.067 5.345 0 1.954 0 3.136.067 5.072h-1.792c-1.86-2.913-3.94-6.048-5.412-8.121 0 3.495 0 5.363.101 8.121h-1.81c.102-1.936.102-3.118.102-5.072 0-2.09 0-3.306-.101-5.345h2.08c1.996 2.707 3.94 5.551 5.158 7.453 0-3.084 0-5.003-.102-7.453h1.776M49.863 10.653c.101-1.936.101-3.118.101-5.072 0-2.09 0-3.306-.101-5.345h1.995c0 .497-.017.976-.017 1.388-.017 1.319-.067 2.364-.067 3.957 0 1.474.034 2.502.067 3.753 0 .394.017.856.017 1.336h-1.995m5.631 4.639c-.456-.394-1.184-.771-2.215-.771-1.252 0-1.877.548-1.877 1.285 0 .617.287 1.062 1.623 1.645.322.137.694.308 1.032.462 1.59.737 2.232 1.525 2.232 2.947 0 2.022-1.623 3.067-3.788 3.067-1.268 0-2.401-.205-3.382-.668l.575-1.525c.778.514 1.792.874 2.773.874 1.404 0 1.894-.668 1.894-1.474 0-.753-.507-1.233-1.556-1.713a37.273 37.273 0 0 0-1.2-.548c-1.42-.669-2.114-1.457-2.114-2.793 0-1.662 1.505-2.913 3.805-2.913 1.268 0 2.181.206 2.807.548zm-9.453 8.48c.101-1.867.101-3.1.101-5.036 0-2.125 0-3.324-.101-5.397h1.995c-.101 2.056-.101 3.272-.101 5.397 0 1.936 0 3.17.101 5.037zM44.434 8.015c0 .412.017.806.017 1.234 1.556 0 3.552 0 4.617-.068l-.541 1.473h-6.02c.1-1.936.1-3.118.1-5.072 0-2.09 0-3.306-.1-5.345h1.995c-.017.702-.017 1.336-.034 1.867-.017 1.011-.067 2.193-.067 3.478 0 .926.016 1.662.033 2.433m-5.191-2.98c1.437.325 2.35 1.25 2.333 2.5 0 2.022-1.454 3.119-4.397 3.119h-3.196c.102-1.936.102-3.118.102-5.072 0-2.073 0-3.306-.102-5.345h3.163c2.52 0 3.99.96 3.99 2.536 0 .993-.828 1.953-1.893 2.261zm-3.298-3.426c-.05.871-.05 1.914-.034 2.957h.964c1.64 0 2.418-.547 2.418-1.539 0-.94-.676-1.487-2.367-1.487-.305 0-.71 0-.981.069zM36.96 9.28c2.063 0 2.74-.616 2.74-1.693 0-1.094-.88-1.658-2.774-1.658h-1.032c0 1.162 0 2.205.034 3.351zm5.935 14.509c0-2.759-.084-5.637-.22-8.104-.185.497-.388 1.045-.642 1.713-.71 2.005-1.624 4.626-2.283 6.39H37.99c-.913-2.655-1.945-5.91-2.655-8.103-.27 2.433-.541 5.397-.643 8.104h-1.741c.507-3.564.744-6.888.879-10.417h2.384c.49 1.73 1.15 3.615 1.793 5.431.389 1.097.744 2.056 1.049 3.016.963-2.433 2.113-5.809 3.027-8.447h2.266c0 2.998.253 6.99.558 10.417zM30.753 10.653c0-2.759-.084-5.637-.22-8.121-.186.497-.389 1.062-.642 1.73-.694 1.97-1.624 4.626-2.283 6.391h-1.742c-.897-2.656-1.979-5.911-2.672-8.121-.27 2.45-.541 5.414-.609 8.121h-1.759c.508-3.564.761-6.888.897-10.434h2.367c.49 1.713 1.167 3.615 1.81 5.414.372 1.096.727 2.073 1.031 3.032.964-2.45 2.131-5.825 3.027-8.446h2.283c0 2.98.254 6.99.558 10.434zm-.575 13.137c0-2.759-.084-5.637-.22-8.104-.169.497-.372 1.045-.609 1.713-.727 2.005-1.64 4.626-2.3 6.39h-1.741a506.085 506.085 0 0 1-2.672-8.103c-.254 2.433-.508 5.397-.61 8.104h-1.758c.508-3.564.761-6.888.896-10.417h2.368c.49 1.73 1.167 3.615 1.81 5.431.388 1.097.744 2.056 1.031 3.016.964-2.433 2.13-5.809 3.044-8.447h2.266c0 2.998.254 6.99.558 10.417zm-9.74-13.12h-2.182c-.136-.377-.27-.77-.423-1.165-.22-.565-.474-1.165-.676-1.748h-4.228c-.22.583-.457 1.217-.71 1.73-.153.378-.373.858-.474 1.183H9.85C11.068 8.1 13.149 3.251 14.485.133h1.792c1.066 2.964 2.74 7.299 4.16 10.537zm-3.704-4.339c-.61-1.505-1.1-2.943-1.54-4.277-.287.804-.659 1.694-1.048 2.652-.203.53-.473 1.112-.676 1.625zm-2.283 6.887c3.247 0 5.445 2.074 5.445 5.226 0 3.359-2.401 5.517-5.445 5.517-3.247 0-5.463-2.073-5.463-5.208 0-3.341 2.368-5.535 5.463-5.535zm3.382 5.363c0-2.415-1.387-3.99-3.382-3.99-2.114 0-3.383 1.61-3.383 3.99 0 2.381 1.303 4.008 3.383 4.008 2.03 0 3.382-1.61 3.382-4.008zM.11 18.89c0-3.53 2.554-5.689 5.716-5.689 1.336 0 2.215.154 3.044.548l-.609 1.68c-.27-.377-1.15-.857-2.418-.857-2.165 0-3.704 1.473-3.704 3.992 0 2.399 1.607 3.975 3.704 3.975.98 0 1.759-.205 2.52-.702l.558 1.336c-.998.566-1.996.771-3.383.771-3.077 0-5.428-2.056-5.428-5.054m9.25-8.648c-1.065.377-2.198.565-3.635.565C2.697 10.807.11 8.803.11 5.753.11 2.343 2.494.03 6.063.03c1.336 0 2.401.257 3.28.651l-.574 1.61c-.288-.256-1.235-.839-2.808-.839-2.469 0-3.855 1.56-3.855 3.958 0 2.536 1.758 4.06 3.703 4.06.693 0 1.184-.068 1.59-.205.067-.565.067-1.627.067-2.159 0-.685 0-1.233-.067-1.73h1.995c-.034.6-.034 1.32-.034 2.039 0 .77 0 1.987.034 2.81l-.034.017"/></g></g></svg>