<?xml version="1.0" encoding="utf-8"?>
<!-- Svg Vector Icons : http://www.onlinewebfonts.com/icon -->
<!DOCTYPE svg PUBLIC "-//W3C//DTD SVG 1.1//EN" "http://www.w3.org/Graphics/SVG/1.1/DTD/svg11.dtd">
<svg version="1.1" xmlns="http://www.w3.org/2000/svg" xmlns:xlink="http://www.w3.org/1999/xlink" x="0px" y="0px" viewBox="0 0 36 36" enable-background="new 0 0 36 36" xml:space="preserve">
<metadata> Svg Vector Icons : http://www.onlinewebfonts.com/icon </metadata>
<g><path d="M922,84C827.4-9.9,695-15,607.3,72l-61.8,61.4c-23.8,23.6-24,62-0.3,85.8c23.6,23.8,62,23.9,85.8,0.3l61.8-61.3c45.4-45.1,104.9-26.4,143.7,12.1c20.7,20.5,32,47.7,32,76.7c0,29-11.4,56.2-32,76.7L641.8,516.7c-89.1,88.4-130.8,46.9-148.6,29.2c-23.8-23.6-62.3-23.4-85.9,0.3c-23.6,23.8-23.5,62.3,0.3,85.9c40.9,40.5,87.6,60.6,136.5,60.6c59.9,0,123.1-30.1,183.3-89.9l194.7-193.2c43.8-43.5,67.9-101.3,67.9-162.9C990,185.4,965.9,127.5,922,84 M368.9,787.5l-49.6,49.2c-42.9,42.6-112.9,42.7-155.8,0c-20.7-20.5-32-47.7-32-76.6c0-28.9,11.3-56.2,31.9-76.7L346,502.4c37.8-37.5,109-92.8,160.8-41.3c23.8,23.6,62.3,23.5,85.9-0.3c23.6-23.8,23.5-62.3-0.3-85.9c-88.2-87.4-218.5-71.3-332,41.3L77.9,597.3C34.1,640.7,10,698.6,10,760.1c0,61.6,24.1,119.3,67.9,162.8c45.1,44.7,104.2,67,163.5,67c59.2,0,118.4-22.4,163.5-67l49.6-49.3c23.8-23.6,23.9-62,0.3-85.8C431.2,764,392.7,763.9,368.9,787.5"/></g>
</svg>