<svg xmlns="http://www.w3.org/2000/svg" width="32" height="32" viewBox="0 0 32 32"><g><g><path fill="#fff" d="M16 32c8.837 0 16-7.163 16-16S24.837 0 16 0 0 7.163 0 16s7.163 16 16 16z"/></g><g><path fill="#6f6e70" d="M8.703 26.6c4.054-.72 4.054-2 4.054-2.8v-.48a7.26 7.26 0 0 1-2.108-3.52c-1.257 0-1.54-2.56-1.54-2.919 0-.36-.041-1.88 1.216-1.88-.811-3.2-.608-6.4 1.58-6.4 5.352-3.68 12.447-.8 9.812 6.4 1.256 0 1.216 1.48 1.216 1.88 0 .4-.325 2.92-1.54 2.92h-.041a7.26 7.26 0 0 1-2.108 3.52v.48c0 .8 0 2.04 4.054 2.8.993.182 2.085.79 3.05 1.602A15.936 15.936 0 0 1 16 32a15.937 15.937 0 0 1-10.36-3.807c.968-.813 2.065-1.419 3.063-1.593z"/></g></g></svg>