<svg xmlns="http://www.w3.org/2000/svg" width="20" height="16" viewBox="0 0 20 16"><g><g><path fill="#6f6e70" d="M20 1.894a8.3 8.3 0 0 1-2.357.636A4.06 4.06 0 0 0 19.447.295a8.29 8.29 0 0 1-2.605.98A4.128 4.128 0 0 0 13.847 0C11.198 0 9.25 2.433 9.85 4.96A11.71 11.71 0 0 1 1.393.739a4.006 4.006 0 0 0 1.27 5.393 4.137 4.137 0 0 1-1.859-.505C.759 7.498 2.121 9.248 4.095 9.638c-.578.155-1.21.19-1.853.07a4.1 4.1 0 0 0 3.833 2.805A8.349 8.349 0 0 1 0 14.186 11.75 11.75 0 0 0 6.29 16c7.618 0 11.922-6.334 11.662-12.015A8.268 8.268 0 0 0 20 1.894z"/></g></g></svg>