<svg class="sprite-svg" xmlns="http://www.w3.org/2000/svg">

	<symbol id="icon-sport">
		<path fill-rule="nonzero" d="M13 0C5.82 0 0 5.82 0 13s5.82 13 13 13 13-5.82 13-13A13 13 0 0 0 13 0zm6.894 13.538l-3.841.233-3.246-4.483 1.161-3.138 5.415-.417 2.273 3.416-1.762 4.389zM8.07 18.976l-2.076-3.318 1.924-5.06 3.873-.4 3.205 4.42-1.547 3.882-5.379.476zM19.276 3.192l-.34 1.228-5.452.412-2.69-1.743.292-1.578c2.849-.48 5.774.121 8.203 1.685l-.013-.004zM9.642 1.847l-.25 1.345-3.183 2.501c-.449 0-1.18.054-2.394.14A11.691 11.691 0 0 1 9.65 1.837l-.009.009zM2.873 7.24c1.018-.072 2.098-.144 2.834-.18l1.07 2.762-1.945 5.119-3.236.48a11.62 11.62 0 0 1 1.273-8.177l.004-.004zm6.375 16.792h.09l-1.794-2.116.682-1.591 5.733-.511 2.564 1.954-1.174 2.645c-2.037.421-4.15.29-6.119-.38h.018zm7.786-.099l.978-2.281 2.927-2.278 1.632.26a11.713 11.713 0 0 1-5.532 4.3h-.005zm6.294-5.554l-1.793-.282-.659-3.447 1.843-4.609 1.627.377c.619 2.69.258 5.513-1.018 7.961z"/>
	</symbol>

	<symbol id="icon-lottery">
		<path fill-rule="nonzero" d="M11.188 4.643c1.873 0 4.052.37 5.69 1.339a6.353 6.353 0 0 0-5.69-3.546A6.352 6.352 0 0 0 5.5 5.98c1.647-.968 3.806-1.338 5.688-1.338zm6.23 4.852H4.958c.96 1.745 4.49 2.257 6.23 2.257 1.74 0 5.27-.512 6.23-2.257zm-.541 2.216c-1.637.968-3.818 1.34-5.689 1.34-1.872 0-4.051-.372-5.688-1.34a6.353 6.353 0 0 0 5.688 3.546 6.354 6.354 0 0 0 5.689-3.546zm-2.098 7.824c4.273-1.459 7.28-5.39 7.574-9.944h.962v2.435H26v-1.49h-1.207V8.102H19.93C19.552 3.526 15.747 0 11.188 0 6.63 0 2.825 3.526 2.446 8.101H0c0 5.323 2.498 9.692 7.598 11.434L6.05 20.848V23h10.277v-2.152l-1.548-1.313zm-3.59-1.842c4.558 0 8.364-3.527 8.742-8.102h.941c-.38 5.1-4.607 9.048-9.684 9.048-5.076 0-9.302-3.948-9.683-9.048h.941c.379 4.575 4.184 8.102 8.742 8.102zm7.295-8.8c-.026 4.045-3.284 7.31-7.296 7.31-4.03 0-7.295-3.294-7.295-7.357 0-4.062 3.266-7.357 7.295-7.357 4.07 0 7.296 3.314 7.296 7.404zm-1.066-.696c-.96-1.744-4.49-2.257-6.23-2.257-1.739 0-5.27.513-6.23 2.257h12.46z"/>
	</symbol>

	<symbol id="icon-vegas">
		<path fill-rule="nonzero" d="M13.983 22.534H7.366l-.216-1.942h7.048l-.215 1.942zm4.904-5.844H2.46V8.302h16.427v8.388zm-1 2.601H3.46V17.99h14.428v1.301zm-14.12-3.902h3.577V9.603H3.767v5.786zm2.29-3.415l.97.203-.662.714.1.953-.91-.385-.908.385.1-.953-.662-.714.97-.203.5-.827.501.827zm3.093.203l.97-.203.5-.827.5.827.97.203-.66.714.099.953-.909-.385-.908.385.1-.953-.662-.714zm-.318-2.574v5.786h3.578V9.603H8.832zm5.435 2.574l.971-.202.5-.828.5.828.97.202-.661.714.1.953-.909-.385-.908.385.1-.953-.663-.714zm-.37-2.574v5.786h3.682V9.603h-3.683zM11.5 3.19l.102.973-.929-.394-.928.394.101-.973-.676-.73.993-.208.51-.846.512.846.992.207-.677.73zM1.011 5.583h19.324V2.54h-4.624c-2.302-3.386-7.773-3.387-10.074 0H1.01v3.043zM0 25h21.347v-1.418h-1.012v-3.474h.888v-1.251h2.119V5.772c.395-.238.658-.666.658-1.153 0-.748-.62-1.354-1.383-1.354-.764 0-1.383.606-1.383 1.354 0 .487.264.915.658 1.153v11.667h-.67v-1.251h-.887V6.884H1.01v16.698H0V25z"/>
	</symbol>

	<symbol id="icon-poker">
		<path fill-rule="nonzero" d="M16.498 11.536h3.841l-.595-2.385C21.546 10.307 24 9.048 24 6.874c0-1.717-1.59-2.988-3.283-2.664C21.907 2.434 20.633 0 18.42 0c-2.216 0-3.488 2.432-2.299 4.21-1.692-.324-3.283.947-3.283 2.664 0 2.176 2.457 3.434 4.259 2.274l-.598 2.388zM6.589 9.19c1.655.834 3.431-.519 3.431-2.289 0-2.11-3.455-5.395-4.737-6.9C3.999 1.509.544 4.789.544 6.9c0 1.769 1.78 3.125 3.433 2.287l-.587 2.347h3.785L6.589 9.19zm3.975 8.258c0-2.947-3.548-3.854-5.282-1.342C3.547 13.594 0 14.5 0 17.448c0 2.356 3.849 6.012 5.282 7.693 1.43-1.677 5.282-5.34 5.282-7.693zM18.414 26l4.886-6.104-4.878-6.11-4.886 6.103L18.415 26z"/>
	</symbol>

	<symbol id="icon-in-play">
		<path fill-rule="nonzero" d="M11.726 8.005h-1.452V5.622h1.452v2.383zm2.344 1.349l-1.72 5.428c-.873 2.758-4.608.387-2.475-1.572l4.195-3.856zm-9.353 5.65H2.331v-1.45h2.386v1.45zm7.009 5.549v2.384h-1.452v-2.384h1.452zm7.943-5.55h-2.386v-1.449h2.386v1.45zm-1.854-9.862c.735.547 1.4 1.18 1.983 1.885l.464-.463.571.57L22 5.968l-3.078-3.073-1.166 1.165.57.57-.51.511zm-5.229-2.145V2.05h.931V0H8.501v2.05h.931v.944a11.79 11.79 0 0 1 3.154.002zM3.673 4.63l.571-.57-1.166-1.166L0 5.968l1.167 1.165.57-.57.465.463a11.87 11.87 0 0 1 1.983-1.885l-.512-.511zM11 25c5.93 0 10.736-4.8 10.736-10.721C21.736 8.357 16.93 3.558 11 3.558 5.07 3.558.264 8.358.264 14.279S5.07 25 11 25z"/>
	</symbol>

	<symbol id="icon-live-casino">
		<path fill-rule="nonzero" d="M13.672 15.717a.997.997 0 0 1 0 1.406.989.989 0 0 1-1.401 0 .997.997 0 0 1 0-1.406.988.988 0 0 1 1.401 0zm3.76 3.772a.997.997 0 0 1 0 1.406.988.988 0 0 1-1.402 0 .997.997 0 0 1 0-1.406.987.987 0 0 1 1.402 0zM19.509 16a.988.988 0 0 1 1.401 0 .997.997 0 0 1 0 1.405.988.988 0 0 1-1.401 0 .997.997 0 0 1 0-1.406zm-11.327.562L16.59 25 25 16.56l-8.41-8.44-8.408 8.44zm7.708-.703a.988.988 0 0 1 1.401 0 .997.997 0 0 1 0 1.406.987.987 0 0 1-1.401 0 .996.996 0 0 1 0-1.406zM4.477 3.3a.992.992 0 1 1-1.982 0c0-.55.443-.994.991-.994s.991.445.991.994zm0 5.336a.992.992 0 0 1-.99.994.992.992 0 0 1-.991-.994.992.992 0 0 1 1.981 0zM9.396 3.3c0 .55-.444.994-.991.994a.992.992 0 0 1-.99-.994c0-.55.443-.994.99-.994.547 0 .991.445.991.994zm-.99 4.341c.547 0 .99.445.99.994a.992.992 0 0 1-.99.994.992.992 0 0 1-.991-.994c0-.549.444-.994.99-.994zm-1.47-1.673a.992.992 0 0 1-.99.994.992.992 0 0 1-.99-.994c0-.55.443-.994.99-.994.548 0 .99.445.99.994zm4.957 5.968V0H0v11.936h11.893zm3.857.29a.987.987 0 0 1 1.4 0 .997.997 0 0 1 0 1.406.987.987 0 0 1-1.4 0 .996.996 0 0 1 0-1.406z"/>
	</symbol>

	<symbol id="icon-casino">
		<path fill-rule="nonzero" d="M13.858 11.193a1.992 1.992 0 0 0-1.716 0L9.878 8.714 8.714 9.878l2.478 2.265a1.992 1.992 0 0 0 0 1.714l-2.478 2.265 1.164 1.164 2.265-2.479a1.992 1.992 0 0 0 1.714 0l2.265 2.479 1.164-1.164-2.479-2.264a1.992 1.992 0 0 0 0-1.716l2.479-2.264-1.164-1.164-2.264 2.479zm-1.596-7.318V1.5c-1.232.08-2.442.357-3.587.82l1.03 2.14a9.183 9.183 0 0 1 2.557-.585zM8.378 5.098l-1.031-2.14A11.455 11.455 0 0 0 4.469 5.25l1.858 1.483a9.094 9.094 0 0 1 2.05-1.636zm-2.969 2.79L3.55 6.404a11.586 11.586 0 0 0-1.599 3.314l2.318.53a9.232 9.232 0 0 1 1.14-2.362zm-1.47 3.797l-2.316-.529a11.517 11.517 0 0 0 .002 3.681l2.315-.528a9.128 9.128 0 0 1 0-2.624zm.328 4.06l-2.315.528a11.553 11.553 0 0 0 1.593 3.318l1.859-1.481a9.158 9.158 0 0 1-1.137-2.364zm7.992 6.38a9.106 9.106 0 0 1-2.558-.586L8.668 23.68c1.167.475 2.379.745 3.59.822l.001-2.377zm4.032-.583a9.197 9.197 0 0 1-2.56.583l-.001 2.376a11.608 11.608 0 0 0 3.59-.819l-1.029-2.14zm3.379-2.272a9.12 9.12 0 0 1-2.052 1.635l1.03 2.14a11.44 11.44 0 0 0 2.88-2.292L19.67 19.27zm2.06-3.515a9.25 9.25 0 0 1-1.142 2.361l1.858 1.484a11.594 11.594 0 0 0 1.6-3.314l-2.317-.531zm.331-4.06a9.17 9.17 0 0 1 0 2.624l2.317.53c.199-1.23.194-2.472-.001-3.68l-2.316.525zm-1.462-3.801c.493.733.873 1.53 1.135 2.365l2.315-.527a11.541 11.541 0 0 0-1.591-3.318l-1.859 1.48zm-2.969-2.79a9.123 9.123 0 0 1 2.05 1.636l1.86-1.48a11.573 11.573 0 0 0-2.877-2.295L17.63 5.104zM6.323 19.263l-1.86 1.481c.84.926 1.794 1.675 2.879 2.294l1.033-2.141a9.147 9.147 0 0 1-2.052-1.634zm19.232-9.626c1.856 6.927-2.264 14.062-9.192 15.918C9.436 27.412 2.301 23.29.445 16.364-1.411 9.436 2.708 2.3 9.637.445c6.927-1.857 14.062 2.264 15.918 9.192zm-9.252-5.174l1.033-2.14a11.448 11.448 0 0 0-3.598-.825v2.377c.865.07 1.728.263 2.565.588z"/>
	</symbol>
	
	<symbol id="icon-board" viewBox="0 0 429.987 429.987">
		<path d="M72.198 338.114c-14.23 0-25.807 11.577-25.807 25.806 0 14.23 11.577 25.807 25.807 25.807 14.229 0 25.806-11.577 25.806-25.807 0-14.23-11.577-25.806-25.806-25.806zm0 33.613c-4.305 0-7.807-3.502-7.807-7.807 0-4.304 3.502-7.806 7.807-7.806 4.304 0 7.806 3.502 7.806 7.806 0 4.305-3.502 7.807-7.806 7.807zM414.857 0H345.53a9 9 0 0 0-9 9v32.936c-16.637 2.276-31.321 10.768-41.626 23.053H112.665c-28.382 0-55.114 11.102-75.274 31.261C17.232 116.412 6.13 143.145 6.13 171.524s11.102 55.113 31.262 75.274c20.159 20.158 46.892 31.26 75.273 31.26l192.396-.001c5.737 0 11.174 2.278 15.313 6.418 4.137 4.135 6.415 9.572 6.415 15.312 0 5.737-2.279 11.176-6.417 15.313-4.137 4.136-9.574 6.415-15.311 6.415H122.823c-12.129-14.456-30.324-23.662-50.627-23.662-36.429 0-66.066 29.637-66.066 66.066s29.637 66.067 66.066 66.067c20.306 0 38.5-9.206 50.629-23.665h182.236c28.379 0 55.112-11.101 75.274-31.26 2.439-2.44 8.287-9.108 8.673-9.78 14.646-18.667 22.586-41.492 22.586-65.495 0-28.38-11.102-55.113-31.261-75.274-20.161-20.159-46.894-31.261-75.273-31.261h-92.921a8.817 8.817 0 0 0-.23 0l-99.245.001c-5.736 0-11.175-2.279-15.313-6.417-4.137-4.136-6.415-9.575-6.415-15.313 0-3.488.842-6.866 2.432-9.908.118-.198.228-.4.329-.605a22.224 22.224 0 0 1 3.653-4.798c4.14-4.139 9.579-6.417 15.314-6.417h182.239c12.129 14.456 30.324 23.664 50.626 23.664 36.429 0 66.065-29.637 66.065-66.066 0-5.772-.749-11.51-2.226-17.052a9 9 0 0 0-17.393 4.635 48.206 48.206 0 0 1 1.619 12.417c0 26.504-21.562 48.066-48.065 48.066-26.504 0-48.067-21.563-48.067-48.066 0-23.429 16.849-42.996 39.067-47.222v47.222c0 4.971 4.029 9 9 9s9-4.029 9-9V65.894h60.327a9 9 0 0 0 9-9V9a8.998 8.998 0 0 0-8.999-9zM72.196 411.987c-26.503 0-48.066-21.563-48.066-48.067 0-26.503 21.563-48.066 48.066-48.066 26.505 0 48.069 21.563 48.069 48.066 0 26.504-21.564 48.067-48.069 48.067zm130.829-23.665h-69.43a65.734 65.734 0 0 0 4.67-24.402 65.701 65.701 0 0 0-4.671-24.404h69.431v48.806zm79.349 0h-61.349v-48.806h61.349v48.806zm85.234-25.988c-16.762 16.758-38.974 25.988-62.546 25.988h-4.688v-48.806h4.688c10.545 0 20.502-4.15 28.038-11.686.403-.403.796-.813 1.179-1.229l34.52 34.52c-.393.407-.79.812-1.191 1.213zm25.987-62.546c0 16.893-4.741 33.088-13.596 47.08l-36.616-36.616a39.454 39.454 0 0 0 1.405-10.465c0-3.529-.465-6.992-1.365-10.32l36.647-36.646c8.81 13.963 13.525 30.118 13.525 46.967zm-93.221-88.537h4.688c23.572 0 45.785 9.23 62.545 25.989.432.432.859.868 1.281 1.307l-34.522 34.521c-.41-.448-.832-.888-1.264-1.321-7.537-7.539-17.495-11.69-28.04-11.689h-4.688v-48.807zm-79.349 0h61.349v48.807h-61.349v-48.807zm-74.058 0h56.058v48.807h-56.058v-48.807zM24.13 171.523c0-17.531 5.104-34.309 14.615-48.652l36.201 36.199a39.385 39.385 0 0 0-2.009 12.455c0 4.611.793 9.11 2.317 13.343l-36.027 36.027c-9.821-14.501-15.097-31.546-15.097-49.372zm88.528 39.728h16.309v48.807h-16.302c-23.249 0-45.173-8.976-61.848-25.298l34.509-34.51c7.45 7.103 17.117 11.002 27.332 11.001zm16.309-79.457h-16.302c-10.498 0-20.417 4.115-27.946 11.593l-34.506-34.504c16.749-16.699 38.922-25.895 62.452-25.895h16.302v48.806zm74.058 0h-56.058V82.989h56.058v48.805zm81.108 0h-63.108V82.989h63.108c-3.013 7.554-4.67 15.787-4.67 24.403s1.657 16.849 4.67 24.402zm121.724-83.9H354.53V18h51.327v29.894z"></path>
	</symbol>

</svg>