<svg xmlns="http://www.w3.org/2000/svg" class="sprite-sport">

	<symbol id="icon-football">
		<g>
			<g>
				<path d="M16.564 13.93l-.505-2.655 1.412-3.55 1.247.29a8.978 8.978 0 0 1-.78 6.133zm-3.46 4.48l.751-1.755 2.252-1.752 1.255.2a9.01 9.01 0 0 1-4.255 3.307zm-5.921.085l-1.38-1.632.525-1.227 4.41-.395 1.972 1.508-.903 2.04a8.943 8.943 0 0 1-4.707-.294zM2.21 5.569c.783-.055 1.614-.11 2.18-.138l.824 2.124-1.497 3.938-2.49.37a8.938 8.938 0 0 1 .98-6.29zm5.207-4.148l-.193 1.038-2.448 1.93c-.345 0-.907.041-1.842.107a8.992 8.992 0 0 1 4.49-3.082zm7.42 1.034l-.262.945-4.2.317-2.072-1.341.225-1.214a8.946 8.946 0 0 1 6.32 1.297zm-8.63 12.152L4.61 12.05l1.48-3.899 2.979-.307 2.465 3.405-1.19 2.99zm9.096-4.193l-2.955.18-2.496-3.45.893-2.413 4.165-.32 1.749 2.627zM10 0C4.477 0 0 4.477 0 10s4.477 10 10 10 10-4.477 10-10A10 10 0 0 0 10 0z"/>
			</g>
		</g>
	</symbol>
	
	<symbol id="icon-basketball">
		<g>
			<g>
				<path fill="#fff" d="M19.622 12.604a9.853 9.853 0 0 1-2.12 3.969l-2.82-2.819a6.065 6.065 0 0 1 4.94-1.15zm-3.046 4.916a10.265 10.265 0 0 1-3.993 2.142 6.088 6.088 0 0 1 1.15-4.96zm.948-14.07a9.94 9.94 0 0 1 2.391 7.87c-2.21-.452-4.444.09-6.159 1.51l-2.82-2.819zM8.703.09C9.13.023 9.56 0 9.989 0c2.459 0 4.76.88 6.587 2.48L9.99 9.064l-2.82-2.796A7.337 7.337 0 0 0 8.703.09zM.356 7.41a9.905 9.905 0 0 1 2.12-3.982l2.82 2.834A6.057 6.057 0 0 1 .356 7.41zM6.22 5.32l-2.82-2.818A10.265 10.265 0 0 1 7.394.36a6.019 6.019 0 0 1-1.173 4.96zm5.054 14.589a8.22 8.22 0 0 1-1.286.09A9.92 9.92 0 0 1 3.4 17.52l6.588-6.562 2.82 2.796a7.308 7.308 0 0 0-1.534 6.156zm-8.799-3.315A9.94 9.94 0 0 1 .085 8.726a6.887 6.887 0 0 0 1.511.158 7.293 7.293 0 0 0 4.648-1.669l2.797 2.796z"/>
			</g>
		</g>
	</symbol>

	<symbol id="icon-tennis">
		<g>
			<g>
				<path fill="#fff" d="M17.071 17.077A10.01 10.01 0 0 1 10.443 20c0-2.5 1.04-4.962 2.813-6.73 1.773-1.77 4.2-2.77 6.744-2.808a10.007 10.007 0 0 1-2.929 6.615zM.04 11.347h.077c2.965 0 5.816-1.155 7.895-3.27 2.119-2.115 3.274-5 3.274-8 2.157.27 4.16 1.27 5.74 2.846 1.694 1.692 2.618 3.808 2.85 6a11.238 11.238 0 0 0-7.78 3.27 11.206 11.206 0 0 0-3.275 7.769c-2.272-.231-4.352-1.231-6.008-2.885-1.54-1.615-2.465-3.654-2.773-5.73zM2.89 2.922C4.74 1.077 7.168.077 9.788 0a9.75 9.75 0 0 1-2.813 7A9.7 9.7 0 0 1 0 9.808a9.993 9.993 0 0 1 2.89-6.885z"/>
			</g>
		</g>
	</symbol>

	<symbol id="icon-cicket">
		<g>
			<g>
				<path fill="#fff" d="M19.978 17.787a3.027 3.027 0 0 1-3.023-3.031 3.027 3.027 0 0 1 3.023-3.031A3.027 3.027 0 0 1 23 14.755a3.027 3.027 0 0 1-3.022 3.032zM8.425 16.42a.756.756 0 0 1-.773.183c-.877-.292-1.73-.861-2.564-1.696-.834-.834-1.403-1.687-1.695-2.565a.757.757 0 0 1 .183-.774L14.916.222a.756.756 0 0 1 .774-.183c.877.292 1.73.861 2.564 1.695.834.835 1.402 1.688 1.695 2.565.09.272.02.572-.183.775zM3.43 14.74c.252.328.537.651.855.97.318.318.641.604.969.856l-3.209 3.212a.755.755 0 0 1-1.068 0l-.756-.756a.757.757 0 0 1 0-1.07z"/>
			</g>
		</g>
	</symbol>

	<symbol id="icon-boxing">
		<g>
			<g>
				<path fill="#f9f9f9" d="M10.485 19.06c-.159.86-.935.94-.935.94H3.283s-.776-.08-.935-.94l-.319-1.98h8.755zm.339-10.04c-.597.82.119 1.6.119 1.6s3.044-2.36 3.044-5.96c2.825 0 1.85 3.94 1.85 3.94-1.71 6.32-4.814 6.94-4.834 6.94H1.83C1.174 13.94 0 10.46 0 7.52 0 1.34 3.382 0 6.506 0c9.73 0 6.049 6.64 4.318 9.02z"/>
			</g>
		</g>
	</symbol>

	<symbol id="icon-golf">
		<g>
			<g>
				<path fill="#fff" d="M15 7.143c0 3.938-3.365 7.143-7.5 7.143-4.136 0-7.5-3.205-7.5-7.143C0 3.204 3.365 0 7.5 0 11.636 0 15 3.204 15 7.143zM4.125 5.714c0-.591-.504-1.071-1.125-1.071s-1.125.48-1.125 1.071c0 .592.504 1.072 1.125 1.072s1.125-.48 1.125-1.072zm2.25-2.143c0-.591-.504-1.071-1.125-1.071s-1.125.48-1.125 1.071c0 .592.504 1.072 1.125 1.072s1.125-.48 1.125-1.072zm2.25 2.143c0-.591-.504-1.071-1.125-1.071s-1.125.48-1.125 1.071c0 .592.504 1.072 1.125 1.072s1.125-.48 1.125-1.072zm2.25-2.143c0-.591-.504-1.071-1.125-1.071s-1.125.48-1.125 1.071c0 .592.504 1.072 1.125 1.072s1.125-.48 1.125-1.072zm2.25 2.143c0-.591-.504-1.071-1.125-1.071s-1.125.48-1.125 1.071c0 .592.504 1.072 1.125 1.072s1.125-.48 1.125-1.072zm-2.625 10c0 .395-.336.715-.75.715-.829 0-1.5.64-1.5 1.428v1.429c0 .394-.336.714-.75.714s-.75-.32-.75-.714v-1.429c0-.789-.671-1.428-1.5-1.428-.414 0-.75-.32-.75-.715 0-.394.336-.714.75-.714h4.5c.414 0 .75.32.75.714z"/>
			</g>
		</g>
	</symbol>

	<symbol id="icon-sports">
		<g>
			<g>
				<path fill="#f9f9f9" d="M3.015 15.844l.2-1.224c.018-.08.08-.139.153-.139h.97c.071 0 .117.06.099.139l-.136.859c-.027.158.072.286.217.286h.29c.145 0 .28-.128.308-.286l.271-1.709c.027-.158-.072-.286-.217-.286h-.715c-.58 0-.969-.514-.87-1.156l.354-2.172c.1-.642.66-1.156 1.24-1.156h1.095c.58 0 .978.514.879 1.156l-.118.73c-.018.08-.082.139-.154.139h-.969c-.072 0-.117-.06-.1-.139l.055-.326c.018-.158-.072-.286-.217-.286h-.245a.33.33 0 0 0-.307.286l-.227 1.403c-.027.158.064.286.208.286h.716c.58 0 .977.514.878 1.156l-.399 2.44c-.1.641-.66 1.155-1.24 1.155h-1.14c-.58 0-.978-.514-.879-1.156zm3.694.968L7.94 9.188c.018-.08.082-.139.154-.139h2.073c.58 0 .97.514.87 1.156l-.408 2.518c-.1.642-.67 1.156-1.25 1.156h-.977l-.47 2.933c-.01.08-.073.139-.146.139h-.968c-.073 0-.118-.06-.109-.139zm2.752-4.454l.29-1.748c.027-.158-.072-.287-.217-.287H8.98l-.38 2.321h.552a.33.33 0 0 0 .308-.286zm1.295 3.486l.923-5.688C11.78 9.514 12.34 9 12.92 9h1.16c.579 0 .977.514.878 1.156l-.924 5.688c-.1.642-.66 1.156-1.24 1.156h-1.159c-.58 0-.978-.514-.878-1.156zm2.118-.365l.797-4.919c.018-.158-.072-.286-.217-.286h-.308a.33.33 0 0 0-.308.286l-.797 4.919c-.027.158.073.286.218.286h.308c.144 0 .28-.128.307-.286zm1.73 1.333l1.23-7.624c.019-.08.082-.139.155-.139h2.073c.58 0 .969.514.87 1.156l-.408 2.518a1.452 1.452 0 0 1-.833 1.077l.235 3.012c.018.139-.081.139-.081.139h-1.041s-.1 0-.11-.139l-.235-2.933h-.162l-.471 2.933c-.01.08-.073.139-.145.139h-.969c-.072 0-.117-.06-.108-.139zm2.752-4.454l.29-1.748c.027-.158-.073-.287-.218-.287h-.552l-.38 2.321h.552a.33.33 0 0 0 .308-.286zm2.462-3.309h3.078c.073 0 .118.06.1.139l-.163.997c-.009.08-.072.138-.145.138h-.932l-1.05 6.49c-.01.078-.073.138-.145.138h-.97c-.071 0-.117-.06-.108-.139l1.05-6.489h-.923c-.072 0-.118-.059-.109-.138l.163-.997c.018-.08.082-.139.154-.139zM13 26c7.18 0 13-5.82 13-13S20.18 0 13 0 0 5.82 0 13s5.82 13 13 13z"/>
			</g>
		</g>
	</symbol>

	<symbol id="icon-favourites">
		<g>
			<g>
				<path d="M7 12l-3.703 1.947a.557.557 0 0 1-.808-.588l.707-4.123L.2 6.316a.557.557 0 0 1 .309-.95l4.14-.602L6.5 1.012a.557.557 0 0 1 1 0L9.35 4.764l4.14.602a.557.557 0 0 1 .31.95l-2.997 2.92.707 4.123a.557.557 0 0 1-.808.588z"/>
			</g>
		</g>
	</symbol>

	<symbol id="icon-shape">
		<g>
			<g>
				<path fill="#161516" d="M11 17v2h3a1 1 0 0 0 0-2zm-2-6h4a3 3 0 0 1 2.615 4.471A3 3 0 0 1 14 21H9zm2 2v2h2a1 1 0 0 0 0-2zM26 0h-2a2 2 0 1 1-4 0h-2a2 2 0 1 1-4 0h-2a2 2 0 1 1-4 0H6a2 2 0 1 1-4 0H0v30h2a2 2 0 1 1 4 0h2a2 2 0 1 1 4 0h2a2 2 0 1 1 4 0h2a2 2 0 1 1 4 0h2z"/>
			</g>
		</g>
	</symbol>

	<symbol id="icon-play">
		<g><g><path fill="#fff" d="M.743.413A.5.5 0 0 0 0 .85v8.3a.5.5 0 0 0 .743.437l7.47-4.15a.5.5 0 0 0 0-.874z"/></g></g>
	</symbol>

	<symbol id="icon-times">
		<g>
			<g>
				<path d="M.264 14.279c0-5.921 4.809-10.721 10.741-10.721 5.932 0 10.741 4.8 10.741 10.721S16.937 25 11.005 25C5.072 25 .264 20.2.264 14.279zm3.92-9.138a11.87 11.87 0 0 0-1.982 1.885l-.464-.463-.571.57L0 5.968l3.078-3.074L4.244 4.06l-.57.571zm5.248-2.147v-.945h-.931V0h5.016v2.05h-.93v.947a11.79 11.79 0 0 0-3.155-.003zm8.895 1.632l-.571-.569 1.166-1.162L22 5.961l-1.167 1.162-.57-.569-.465.462a11.421 11.421 0 0 0-1.983-1.88zm1.342 8.928h-2.386v1.45h2.386zm-9.395 6.999v2.394h1.462v-2.394zm-5.557-6.998H2.331v1.449h2.386zm5.158-.34c-2.133 1.963 1.602 4.338 2.475 1.575l1.72-5.437zm1.86-7.593h-1.461v2.393h1.462z"/>
			</g>
		</g>
	</symbol>

	<symbol id="icon-extras">
		<g>
			<g>
				<path d="M17 13a2 2 0 1 1 4 0 2 2 0 0 1-4 0zm-6 0a2 2 0 1 1 4 0 2 2 0 0 1-4 0zm-6 0a2 2 0 1 1 4 0 2 2 0 0 1-4 0zm8 13c12.9 0 13-5.82 13-13S25.9 0 13 0 0 5.82 0 13s.1 13 13 13z"/>
			</g>
		</g>
	</symbol>

</svg>