<svg xmlns="http://www.w3.org/2000/svg" width="78" height="15" viewBox="0 0 78 15"><defs><clipPath id="5hmqa"><path fill="#fff" d="M70.737 14.17H39.825a.813.813 0 0 1-.815-.81V.99c0-.448.365-.811.815-.811h36.94c.451 0 .816.363.816.811V7.36c-.004 3.76-3.066 6.807-6.844 6.81z"/></clipPath></defs><g><g><g><g><path fill="#6f6e70" d="M31.15 2.422h2.098c.05 0 .092.038.096.088l.548 9.29a.095.095 0 0 1-.096.102h-2.002a.096.096 0 0 1-.096-.089L31.5 8.526a.096.096 0 0 0-.096-.096.096.096 0 0 0-.096.096l-1.124 3.315a.096.096 0 0 1-.09.068h-2.056a.096.096 0 0 1-.09-.068l-1.233-3.506a.096.096 0 0 0-.096-.096.096.096 0 0 0-.096.096l-.22 3.451a.096.096 0 0 1-.096.089h-2.015a.096.096 0 0 1-.096-.103l.603-9.255a.096.096 0 0 1 .096-.089h2.098a.096.096 0 0 1 .089.069l1.975 5.606a.096.096 0 0 0 .185 0l1.92-5.606a.096.096 0 0 1 .089-.075zM20.458 11.84l-.33-.982a.096.096 0 0 0-.095-.069h-2.867a.096.096 0 0 0-.089.069l-.343 1.016a.096.096 0 0 1-.089.068h-2.112a.095.095 0 0 1-.09-.13l3.176-9.276a.096.096 0 0 1 .09-.068h1.933a.096.096 0 0 1 .096.068l3.01 9.276a.095.095 0 0 1-.012.091.096.096 0 0 1-.084.039h-2.098a.096.096 0 0 1-.096-.102zm-1.183-3.257a.097.097 0 0 0 .084-.039.095.095 0 0 0 .013-.091l-.62-1.903a.096.096 0 0 0-.187 0l-.69 1.903a.095.095 0 0 0 .017.102.097.097 0 0 0 .1.028zm-6.307-1.893V11.8a.096.096 0 0 1-.096.095h-2.016a.096.096 0 0 1-.096-.095.096.096 0 0 0-.13-.089 4.03 4.03 0 0 1-.618.143c-.252.04-.506.06-.76.062a4.87 4.87 0 0 1-1.798-.375 4.651 4.651 0 0 1-1.584-1.044 4.554 4.554 0 0 1-1.035-1.548 4.827 4.827 0 0 1-.343-1.787c0-.614.117-1.223.343-1.794a4.54 4.54 0 0 1 1.042-1.575c.45-.453.99-.808 1.584-1.044a4.824 4.824 0 0 1 3.607 0 4.631 4.631 0 0 1 1.509.975.095.095 0 0 1 0 .137l-1.42 1.412a.096.096 0 0 1-.137 0 2.47 2.47 0 0 0-.788-.498 2.626 2.626 0 0 0-2.805.559 2.558 2.558 0 0 0 0 3.635c.219.22.477.399.761.525.275.123.57.197.871.219.3.022.601-.006.892-.082.277-.072.539-.192.774-.355a.095.095 0 0 0 .042-.082v-.327a.096.096 0 0 0-.096-.096H8.949a.096.096 0 0 1-.096-.095V6.691c0-.053.043-.095.096-.095h3.916a.096.096 0 0 1 .103.095zm25.5 6.675V.991a.813.813 0 0 0-.816-.811H6.761C2.977.18-.09 3.233-.09 6.998v6.368c0 .448.365.812.815.812h36.927c.45 0 .815-.364.815-.812z"/></g><g><path fill="none" stroke="#6f6e70" stroke-miterlimit="50" d="M70.737 14.17v0H39.825a.813.813 0 0 1-.815-.81V.99c0-.448.365-.811.815-.811h36.94c.451 0 .816.363.816.811V7.36c-.004 3.76-3.066 6.807-6.844 6.81z" clip-path="url(&quot;#5hmqa&quot;)"/></g><g><path fill="#6f6e70" d="M54.057 11.904h-2.21V4.629H50.03V2.433h5.838V4.63h-1.811zm7.58-9.47a4.63 4.63 0 0 1 1.85.374 4.897 4.897 0 0 1 1.516 1.01c.434.43.78.939 1.022 1.5a4.715 4.715 0 0 1 0 3.688 4.89 4.89 0 0 1-2.537 2.53 4.776 4.776 0 0 1-3.702 0 4.745 4.745 0 0 1-2.523-2.517 4.748 4.748 0 0 1 0-3.688 4.745 4.745 0 0 1 2.523-2.516 4.63 4.63 0 0 1 1.85-.382zm1.002 7.09a2.548 2.548 0 0 0 0-4.711 2.579 2.579 0 0 0-3.37 1.364 2.548 2.548 0 0 0 1.373 3.347c.315.133.655.2.998.198.343.003.683-.065.999-.198zm11.9-3.102a3.859 3.859 0 0 1-.303 1.527 3.98 3.98 0 0 1-.844 1.255c-.36.362-.786.653-1.255.859-.452.2-.939.31-1.434.327a.096.096 0 0 0-.096.095v1.323a.096.096 0 0 1-.096.096h-1.996a.096.096 0 0 1-.096-.096V2.535c0-.052.043-.095.096-.095H70.6a3.827 3.827 0 0 1 1.53.334c.469.21.894.503 1.256.866.359.36.645.787.843 1.255a3.86 3.86 0 0 1 .31 1.527zm-3.942 1.704c0 .027.01.052.03.07.02.018.046.028.073.026.2-.018.397-.072.579-.157a1.88 1.88 0 0 0 .55-.389 1.791 1.791 0 0 0 0-2.495 1.88 1.88 0 0 0-.55-.389 1.736 1.736 0 0 0-.579-.157.096.096 0 0 0-.103.082zM45.26 11.904c-.304-.001-.606-.042-.899-.123a3.061 3.061 0 0 1-.85-.382 3.21 3.21 0 0 1-1.482-2.632.095.095 0 0 1 .096-.102h2.038c.053 0 .096.043.096.095a.876.876 0 0 0 .164.505c.083.114.185.214.302.293.15.103.326.162.508.17.184.01.367-.025.535-.102a.865.865 0 0 0 .295-.19c.067-.068.124-.143.171-.226A.618.618 0 0 0 46.304 9c.017-.11.017-.223 0-.334a.679.679 0 0 0-.069-.218.88.88 0 0 0-.171-.225 1.118 1.118 0 0 0-.295-.198l-.302-.116-.343-.116-.686-.232a3.782 3.782 0 0 1-.686-.347 2.738 2.738 0 0 1-.768-.682 2.804 2.804 0 0 1-.542-1.93c.03-.35.131-.69.295-1.002a2.838 2.838 0 0 1 1.358-1.275 2.84 2.84 0 0 1 .92-.225c.336-.026.674.004 1 .089a2.834 2.834 0 0 1 1.578.975c.178.228.317.483.412.756.092.264.143.54.15.819a.095.095 0 0 1-.095.102h-1.99a.096.096 0 0 1-.096-.082.409.409 0 0 0-.185-.327 1.376 1.376 0 0 0-.322-.15h-.11a.635.635 0 0 0-.22 0 .785.785 0 0 0-.253.088.506.506 0 0 0-.206.225.614.614 0 0 0 .22.784c.13.072.265.134.404.185l.467.163.446.143c.15.05.304.11.46.178a3.034 3.034 0 0 1 1.824 2.761 2.98 2.98 0 0 1-.494 1.664 3.231 3.231 0 0 1-2.744 1.432z"/></g></g></g></g></svg>