<svg class="sprite-svg" xmlns="http://www.w3.org/2000/svg">

	<symbol id="icon-logor"></symbol>

	<symbol id="icon-xxx" x="0px" y="0px" width="66.056px" height="66.057px" viewBox="0 0 66.056 66.057" style="enable-background:new 0 0 66.056 66.057;" xml:space="preserve">
		<g>
			<g id="_x32_9_1_">
				<g>
					<path d="M60.67,6.1c0-3.363-2.735-6.1-6.097-6.1H11.482C8.121,0,5.386,2.736,5.386,6.189c0,3.363,2.735,6.1,6.096,6.1h10.754
						L10.033,64.168c-0.193,0.825,0.317,1.652,1.143,1.846c0.118,0.03,0.237,0.043,0.354,0.043c0.696,0,1.327-0.479,1.494-1.187
						L16.9,48.391h32.255l3.877,16.479c0.166,0.708,0.797,1.187,1.492,1.187c0.117,0,0.236-0.013,0.354-0.043
						c0.823-0.191,1.336-1.021,1.144-1.846L43.82,12.289h10.754C57.935,12.289,60.67,9.553,60.67,6.1z M8.457,6.1
						c0-1.668,1.356-3.027,3.024-3.027h43.092c1.668,0,3.024,1.359,3.024,3.117c0,1.668-1.356,3.027-3.024,3.027H11.482
						C9.814,9.217,8.457,7.857,8.457,6.1z M17.623,45.316l3.613-15.361H44.82l3.613,15.361H17.623z M40.748,12.641l3.35,14.242H21.959
						l3.35-14.242c0.028-0.118,0.037-0.235,0.037-0.352H40.71C40.71,12.405,40.719,12.522,40.748,12.641z"/>
				</g>
			</g>
		</g>
	</symbol>

</svg>