<svg xmlns="http://www.w3.org/2000/svg" width="24" height="24" viewBox="0 0 24 24"><g><g><path fill="#6f6e70" d="M23.104 3.218v1.655h-2.302v2.303h-1.658V4.873h-2.29V3.218h2.29v-2.3h1.658v2.3zm.5 5.608c.285 1.029.427 2.094.427 3.174 0 6.617-5.39 12-12.015 12C5.39 24 0 18.617 0 12S5.39 0 12.016 0c1.08 0 2.148.142 3.178.426v2.202a9.891 9.891 0 0 0-3.178-.522c-5.464 0-9.907 4.438-9.907 9.894s4.443 9.894 9.907 9.894c5.463 0 9.906-4.438 9.906-9.894a9.855 9.855 0 0 0-.522-3.174zm-10.203 1.305c0 .583.422.911 1.182.911s1.182-.325 1.182-.91c0-.608-.422-.946-1.182-.946s-1.182.338-1.182.945m-.21 3.468c0 .688.49 1.075 1.39 1.075.9 0 1.402-.374 1.402-1.075 0-.678-.503-1.063-1.402-1.063-.9 0-1.39.387-1.39 1.063m4.315-3.585c0 .713-.385 1.342-1.03 1.692.9.375 1.462 1.156 1.462 2.067 0 1.472-1.31 2.405-3.355 2.405s-3.355-.923-3.355-2.37c0-.934.609-1.73 1.555-2.102-.689-.384-1.135-1.038-1.135-1.75 0-1.309 1.145-2.139 2.923-2.139 1.8.003 2.935.855 2.935 2.197M7.602 9.57H6.094V7.9h3.59v8.184H7.602z"/></g></g></svg>